<svg version="1.1" id="Layer_1" xmlns:x="ns_extend;" xmlns:i="ns_ai;" xmlns:graph="ns_graphs;" xmlns="http://www.w3.org/2000/svg" xmlns:xlink="http://www.w3.org/1999/xlink" x="0px" y="0px" viewBox="0 0 48.8 58.3" style="enable-background:new 0 0 48.8 58.3;" xml:space="preserve">
 <style type="text/css">
  .st0{fill-rule:evenodd;clip-rule:evenodd;fill:url(#Head_1_);}
	.st1{fill-rule:evenodd;clip-rule:evenodd;fill:#FFFFFF;}
	.st2{fill-rule:evenodd;clip-rule:evenodd;fill:url(#path-3_1_);}
 </style>
 <metadata>
  <sfw xmlns="ns_sfw;">
   <slices>
   </slices>
   <sliceSourceBounds bottomLeftOrigin="true" height="58.3" width="48.8" x="0.6" y="0.7">
   </sliceSourceBounds>
  </sfw>
 </metadata>
 <desc>
  Created with Sketch.
 </desc>
 <g id="Branding">
  <g id="logo_brave" transform="translate(-46.000000, -42.000000)">
   <g id="Logo_x2F_Logotypes_x2F_brave_x2F_logo-dark" transform="translate(46.000000, 42.000000)">
    <g id="Logotypes_x2F_brave_x2F_logo-dark" transform="translate(-3.910345, 0.000000)">
     <g id="Group-5">
      <g id="Build-Icons_x2F_Release">
       <g id="Logo" transform="translate(4.510718, 0.000000)">
        <linearGradient id="Head_1_" gradientUnits="userSpaceOnUse" x1="-104.049" y1="226.5838" x2="-103.049" y2="226.5838" gradientTransform="matrix(48.7978 0 0 -58.296 5076.7598 13238.0781)">
         <stop offset="0" style="stop-color:#FF5500">
         </stop>
         <stop offset="0.4099" style="stop-color:#FF5500">
         </stop>
         <stop offset="0.582" style="stop-color:#FF2000">
         </stop>
         <stop offset="1" style="stop-color:#FF2000">
         </stop>
        </linearGradient>
        <path id="Head" class="st0" d="M46.5,14l1.3-3.4c0,0-1.7-1.9-3.8-4s-6.5-0.9-6.5-0.9l-5-5.8h-8.8H15l-5,5.8
								c0,0-4.4-1.2-6.5,0.9s-3.8,4-3.8,4L1.1,14l-1.7,5c0,0,5,19.4,5.6,21.8c1.2,4.7,2,6.5,5.2,8.8s9.3,6.5,10.2,7.1
								c1,0.6,2.2,1.7,3.3,1.7c1.1,0,2.3-1.1,3.3-1.7c1-0.6,7-4.7,10.2-7.1s4.1-4.2,5.2-8.8c0.6-2.4,5.6-21.8,5.6-21.8L46.5,14z">
        </path>
        <path id="Face" class="st1" d="M23.8,36.3c0.3,0,2.5,0.8,4.2,1.7c1.7,0.9,3,1.5,3.4,1.8c0.4,0.3,0.2,0.7-0.2,1
								c-0.4,0.3-5.2,4.1-5.7,4.5c-0.5,0.4-1.2,1.1-1.6,1.1s-1.2-0.7-1.6-1.1c-0.5-0.4-5.3-4.3-5.7-4.5c-0.4-0.3-0.6-0.7-0.2-1
								c0.4-0.3,1.6-0.9,3.4-1.8C21.3,37,23.5,36.3,23.8,36.3z M23.8,8.9c0.2,0,1.1,0.1,2.4,0.5c1.5,0.5,3,1.1,3.8,1.1
								s6.2-1.1,6.2-1.1s6.4,7.9,6.4,9.6c0,1.7-0.8,2.1-1.6,3c-0.8,0.9-4.4,4.7-4.8,5.2c-0.5,0.5-1.4,1.2-0.8,2.6
								c0.6,1.3,1.4,3.1,0.5,4.8c-0.9,1.7-2.5,2.9-3.5,2.7c-1-0.2-3.4-1.5-4.2-2c-0.9-0.6-3.6-2.9-3.6-3.8c0-0.9,2.8-2.5,3.4-2.8
								c0.5-0.4,2.9-1.8,3-2.3c0-0.5,0-0.7-0.7-2.1c-0.7-1.4-2-3.2-1.8-4.4c0.2-1.2,2.3-1.8,3.7-2.4c1.5-0.6,4.3-1.6,4.6-1.8
								c0.4-0.2,0.3-0.3-0.8-0.4c-1.1-0.1-4.1-0.5-5.5-0.1s-3.7,1-3.9,1.3s-0.4,0.3-0.2,1.4c0.2,1.1,1.2,6.3,1.3,7.2
								c0.1,0.9,0.3,1.5-0.7,1.8c-1,0.2-2.6,0.6-3.2,0.6s-2.2-0.4-3.2-0.6c-1-0.2-0.8-0.8-0.7-1.8c0.1-0.9,1.1-6.1,1.3-7.2
								c0.2-1.1,0-1.1-0.2-1.4c-0.2-0.3-2.5-0.9-3.9-1.3c-1.4-0.4-4.4,0-5.5,0.1s-1.2,0.3-0.8,0.4c0.4,0.2,3.2,1.2,4.6,1.8
								c1.5,0.6,3.5,1.2,3.7,2.4c0.2,1.2-1.1,3-1.8,4.4c-0.7,1.4-0.7,1.5-0.7,2.1c0,0.5,2.4,1.9,3,2.3c0.5,0.4,3.4,2,3.4,2.8
								c0,0.9-2.8,3.2-3.6,3.8c-0.9,0.6-3.2,1.8-4.2,2c-1,0.2-2.6-1-3.5-2.7c-0.9-1.7-0.1-3.5,0.5-4.8c0.6-1.3-0.4-2.1-0.8-2.6
								c-0.5-0.5-4-4.3-4.8-5.2c-0.8-0.9-1.6-1.3-1.6-3c0-1.7,6.4-9.6,6.4-9.6s5.4,1.1,6.2,1.1s2.3-0.6,3.8-1.1
								C22.7,8.9,23.6,8.9,23.8,8.9L23.8,8.9z">
        </path>
        <g id="Top-Head">
         <linearGradient id="path-3_1_" gradientUnits="userSpaceOnUse" x1="-103.5868" y1="213.3162" x2="-102.6083" y2="213.3162" gradientTransform="matrix(40.5021 0 0 -10.5044 4199.9062 2246.0051)">
          <stop offset="0" style="stop-color:#FF452A">
          </stop>
          <stop offset="1" style="stop-color:#FF2000">
          </stop>
         </linearGradient>
         <path id="path-3" class="st2" d="M37.6,5.8l-5-5.8h-8.8H15l-5,5.8c0,0-4.4-1.2-6.5,0.9c0,0,5.9-0.5,7.9,2.8
									c0,0,5.4,1.1,6.2,1.1s2.3-0.6,3.8-1.1c1.5-0.5,2.4-0.5,2.4-0.5s1,0,2.4,0.5c1.5,0.5,3,1.1,3.8,1.1s6.2-1.1,6.2-1.1
									c2-3.3,7.9-2.8,7.9-2.8C42,4.5,37.6,5.8,37.6,5.8">
         </path>
        </g>
       </g>
      </g>
     </g>
    </g>
   </g>
  </g>
 </g>
</svg>