<svg viewBox="0 0 44 44" fill="none" xmlns="http://www.w3.org/2000/svg" aria-hidden="true"><path fill-rule="evenodd" clip-rule="evenodd" d="M22 44c12.15 0 22-9.85 22-22S34.15 0 22 0 0 9.85 0 22s9.85 22 22 22z" fill="#DE5833"></path><path fill-rule="evenodd" clip-rule="evenodd" d="M25.094 38.414c0-.172.042-.211-.504-1.3-1.452-2.908-2.912-7.007-2.248-9.65.121-.481-1.368-17.788-2.42-18.345-1.17-.623-2.609-1.612-3.925-1.832-.668-.107-1.544-.056-2.228.036-.122.016-.127.235-.01.274.449.152.995.417 1.316.817.061.075-.02.194-.118.198-.303.011-.853.138-1.579.754-.083.072-.014.204.094.183 1.56-.309 3.152-.157 4.09.696.062.056.03.155-.05.177-8.144 2.213-6.532 9.298-4.364 17.993 1.774 7.114 2.532 9.8 2.821 10.779.064.215.219.39.43.465 2.889 1.035 8.695 1.036 8.695-.815v-.43z" fill="#DDD"></path><path fill-rule="evenodd" clip-rule="evenodd" d="M42.195 22c0 11.154-9.041 20.195-20.195 20.195S1.805 33.154 1.805 22 10.846 1.805 22 1.805 42.195 10.846 42.195 22zM17.287 39.87c-.558-1.724-2.118-6.72-3.658-13.035l-.154-.628-.001-.006c-1.865-7.616-3.388-13.836 4.96-15.79.075-.018.113-.11.062-.17-.957-1.136-2.751-1.508-5.02-.725-.093.032-.174-.062-.116-.142.445-.613 1.314-1.084 1.743-1.291.089-.043.084-.173-.01-.202a9.573 9.573 0 00-1.297-.31c-.127-.02-.138-.238-.01-.255 3.215-.433 6.574.533 8.259 2.656.016.02.039.034.064.04 6.171 1.324 6.613 11.08 5.902 11.524-.14.088-.59.037-1.182-.029-2.401-.269-7.156-.8-3.232 6.513.04.073-.012.168-.093.18-2.206.344.603 7.231 2.685 11.8 8.187-1.898 14.288-9.237 14.288-18 0-10.204-8.273-18.477-18.477-18.477S3.523 11.796 3.523 22c0 8.576 5.843 15.786 13.764 17.87z" fill="#fff"></path><path d="M28.971 31.177c-.47-.217-2.276 1.078-3.475 2.073-.25-.355-.723-.613-1.788-.427-.933.162-1.448.387-1.678.774-1.472-.558-3.949-1.42-4.547-.587-.654.91.163 5.211 1.032 5.77.453.291 2.623-1.103 3.756-2.065.183.258.477.405 1.082.391.915-.02 2.399-.234 2.629-.66a.478.478 0 00.036-.091c1.165.435 3.214.896 3.672.827 1.193-.18-.166-5.749-.719-6.005z" fill="#3CA82B"></path><path d="M25.606 33.377c.05.088.09.18.123.275.166.465.437 1.942.232 2.306-.205.365-1.533.541-2.352.556-.82.014-1.004-.286-1.17-.75-.133-.372-.199-1.245-.197-1.745-.034-.741.237-1.002 1.49-1.205.927-.15 1.417.025 1.7.323 1.315-.982 3.51-2.368 3.725-2.115 1.068 1.263 1.203 4.27.971 5.48-.075.395-3.61-.392-3.61-.819 0-1.77-.46-2.256-.912-2.306zM17.861 32.824c.29-.458 2.638.111 3.927.685 0 0-.265 1.2.157 2.614.123.414-2.965 2.254-3.369 1.938-.466-.366-1.323-4.274-.715-5.237z" fill="#4CBA3C"></path><path fill-rule="evenodd" clip-rule="evenodd" d="M18.999 23.515c.19-.826 1.075-2.383 4.235-2.345 1.598-.007 3.582-.001 4.898-.15a17.615 17.615 0 004.375-1.064c1.368-.522 1.853-.406 2.024-.094.187.344-.034.936-.512 1.482-.913 1.041-2.554 1.849-5.453 2.088-2.9.24-4.82-.538-5.647.728-.356.546-.08 1.833 2.723 2.239 3.788.546 6.9-.66 7.284.069.385.728-1.83 2.21-5.624 2.24-3.795.031-6.165-1.328-7.006-2.004-1.066-.857-1.543-2.108-1.297-3.19z" fill="#FC3"></path><g opacity="0.8" fill="#14307E"><path d="M23.831 14.481c.212-.346.681-.614 1.45-.614.767 0 1.129.306 1.379.646.05.07-.026.152-.105.117l-.058-.025a2.825 2.825 0 00-1.217-.282c-.632-.008-1.03.15-1.281.286-.085.046-.218-.046-.168-.128zM15.184 14.925c.746-.312 1.332-.272 1.746-.174.087.02.148-.073.078-.13-.322-.259-1.041-.58-1.98-.23-.838.312-1.232.96-1.235 1.387 0 .1.207.109.26.024.144-.23.385-.566 1.13-.877z"></path><path fill-rule="evenodd" clip-rule="evenodd" d="M25.933 19.222c-.66 0-1.195-.533-1.195-1.19 0-.656.535-1.19 1.195-1.19.659 0 1.194.534 1.194 1.19 0 .657-.535 1.19-1.194 1.19zm.84-1.584a.309.309 0 00-.618 0 .309.309 0 00.619 0zM18.02 18.856a1.39 1.39 0 01-1.392 1.388 1.39 1.39 0 01-1.392-1.388 1.39 1.39 0 011.392-1.388 1.39 1.39 0 011.392 1.388zm-.41-.46a.36.36 0 00-.72 0 .36.36 0 00.72 0z"></path></g></svg>