<svg width="1000" height="1000" version="1.1" xmlns="http://www.w3.org/2000/svg" desc="Created with imagetracer.js version 1.2.6" ><path fill="rgb(0,0,0)" stroke="rgb(0,0,0)" stroke-width="1" opacity="0" d="M 0 0 L 1000 0 L 1000 1000 L 0 1000 L 0 0 Z M 475 59 L 474 60 L 450 62 L 430 66 Q 401 72 378 83 Q 330 104 295 136 Q 253 173 226 224 Q 212 250 203 281 L 196 311 L 194 330 L 193 331 L 193 340 L 192 341 L 192 397 L 193 398 L 193 409 L 194 410 L 196 431 L 205 470 Q 213 496 224 520 Q 244 560 269 595 Q 313 654 360 711 Q 390 749 417 792 Q 433 816 445 845 L 456 873 L 469 915 L 477 931 Q 482 938 493 941 Q 507 943 515 938 Q 524 931 528 920 L 551 852 Q 564 819 582 792 Q 609 749 639 711 L 725 602 Q 748 571 767 536 Q 783 505 794 470 L 803 431 L 805 410 L 806 409 L 806 398 L 807 397 L 807 378 L 809 377 L 809 359 L 807 358 L 807 341 L 806 340 L 806 331 L 805 330 L 803 311 Q 798 283 789 260 Q 767 203 730 162 Q 686 112 622 83 L 589 71 L 550 62 L 526 60 L 525 59 L 475 59 Z " /><path fill="rgb(0,0,0)" stroke="rgb(0,0,0)" stroke-width="1" opacity="0" d="M 497.5 249 L 514.5 250 L 525.5 252 L 546.5 259 Q 570.6 269.9 587 288.5 Q 602.5 305.5 611 329.5 L 616 351.5 L 617 371.5 L 616 372.5 L 615 388.5 L 608 411.5 Q 596.4 438.4 575.5 456 Q 560.1 469.1 539.5 477 L 515.5 483 L 492.5 484 L 491.5 483 L 483.5 483 L 472.5 481 L 454.5 475 Q 428.3 463.7 411 443.5 Q 397.1 427.9 389 406.5 L 383 382.5 L 382 361.5 L 383 360.5 L 383 351.5 L 385 340.5 L 392 319.5 Q 402.9 295.4 421.5 279 Q 436.7 265.2 457.5 257 L 473.5 252 L 484.5 250 L 496.5 250 L 497.5 249 Z " /><path fill="rgb(26,115,232)" stroke="rgb(26,115,232)" stroke-width="1" opacity="0.9921568627450981" d="M 474.5 59 L 524.5 59 L 525.5 60 L 534.5 60 L 535.5 61 L 542.5 61 L 543.5 62 L 560.5 64 L 592 72 L 590 76.5 L 409.5 291 L 265.5 169 L 264 169 L 269 161.5 L 294.5 136 Q 330.2 103.7 377.5 83 Q 401.5 72.5 429.5 66 L 449.5 62 L 473.5 60 L 474.5 59 Z " /><path fill="rgb(66,132,243)" stroke="rgb(66,132,243)" stroke-width="1" opacity="0.9921568627450981" d="M 592.5 73 Q 634.1 85.4 666.5 107 Q 702.2 130.3 730 161.5 Q 754.8 189.2 773 223.5 L 596.5 434 L 595 433.5 L 601 425.5 L 612 400.5 L 616 382.5 L 617 361.5 L 616 360.5 L 616 351.5 L 614 340.5 L 607 319.5 Q 596.1 295.4 577.5 279 Q 562.3 265.2 541.5 257 L 520.5 251 L 497.5 249 L 496.5 250 L 484.5 250 L 473.5 252 L 452.5 259 Q 428.4 269.9 412 288.5 L 410.5 291 L 410 289.5 L 592.5 73 Z " /><path fill="rgb(66,132,243)" stroke="rgb(66,132,243)" stroke-width="1" opacity="0.9921568627450981" d="M 265.5 169 L 267.5 172 L 265.5 169 Z " /><path fill="rgb(66,132,243)" stroke="rgb(66,132,243)" stroke-width="1" opacity="0.9921568627450981" d="M 272.5 175 L 274.5 178 L 272.5 175 Z " /><path fill="rgb(66,132,243)" stroke="rgb(66,132,243)" stroke-width="1" opacity="0.9921568627450981" d="M 278.5 180 L 280.5 183 L 278.5 180 Z " /><path fill="rgb(66,132,243)" stroke="rgb(66,132,243)" stroke-width="1" opacity="0.9921568627450981" d="M 284.5 185 L 286.5 188 L 284.5 185 Z " /><path fill="rgb(66,132,243)" stroke="rgb(66,132,243)" stroke-width="1" opacity="0.9921568627450981" d="M 291.5 191 L 293.5 194 L 291.5 191 Z " /><path fill="rgb(66,132,243)" stroke="rgb(66,132,243)" stroke-width="1" opacity="0.9921568627450981" d="M 297.5 196 L 299.5 199 L 297.5 196 Z " /><path fill="rgb(66,132,243)" stroke="rgb(66,132,243)" stroke-width="1" opacity="0.9921568627450981" d="M 303.5 201 L 305.5 204 L 303.5 201 Z " /><path fill="rgb(66,132,243)" stroke="rgb(66,132,243)" stroke-width="1" opacity="0.9921568627450981" d="M 309.5 206 L 311.5 209 L 309.5 206 Z " /><path fill="rgb(66,132,243)" stroke="rgb(66,132,243)" stroke-width="1" opacity="0.9921568627450981" d="M 316.5 212 L 318.5 215 L 316.5 212 Z " /><path fill="rgb(66,132,243)" stroke="rgb(66,132,243)" stroke-width="1" opacity="0.9921568627450981" d="M 322.5 217 L 324.5 220 L 322.5 217 Z " /><path fill="rgb(66,132,243)" stroke="rgb(66,132,243)" stroke-width="1" opacity="0.9921568627450981" d="M 328.5 222 L 330.5 225 L 328.5 222 Z " /><path fill="rgb(66,132,243)" stroke="rgb(66,132,243)" stroke-width="1" opacity="0.9921568627450981" d="M 335.5 228 L 337.5 231 L 335.5 228 Z " /><path fill="rgb(66,132,243)" stroke="rgb(66,132,243)" stroke-width="1" opacity="0.9921568627450981" d="M 341.5 233 L 343.5 236 L 341.5 233 Z " /><path fill="rgb(66,132,243)" stroke="rgb(66,132,243)" stroke-width="1" opacity="0.9921568627450981" d="M 347.5 238 L 349.5 241 L 347.5 238 Z " /><path fill="rgb(66,132,243)" stroke="rgb(66,132,243)" stroke-width="1" opacity="0.9921568627450981" d="M 354.5 244 L 355.5 246 L 354.5 244 Z " /><path fill="rgb(66,132,243)" stroke="rgb(66,132,243)" stroke-width="1" opacity="0.9921568627450981" d="M 360.5 249 L 362.5 252 L 360.5 249 Z " /><path fill="rgb(66,132,243)" stroke="rgb(66,132,243)" stroke-width="1" opacity="0.9921568627450981" d="M 366.5 254 L 368.5 257 L 366.5 254 Z " /><path fill="rgb(66,132,243)" stroke="rgb(66,132,243)" stroke-width="1" opacity="0.9921568627450981" d="M 372.5 259 L 374.5 262 L 372.5 259 Z " /><path fill="rgb(66,132,243)" stroke="rgb(66,132,243)" stroke-width="1" opacity="0.9921568627450981" d="M 379.5 265 L 381.5 268 L 379.5 265 Z " /><path fill="rgb(66,132,243)" stroke="rgb(66,132,243)" stroke-width="1" opacity="0.9921568627450981" d="M 385.5 270 L 387.5 273 L 385.5 270 Z " /><path fill="rgb(66,132,243)" stroke="rgb(66,132,243)" stroke-width="1" opacity="0.9921568627450981" d="M 391.5 275 L 393.5 278 L 391.5 275 Z " /><path fill="rgb(66,132,243)" stroke="rgb(66,132,243)" stroke-width="1" opacity="0.9921568627450981" d="M 398.5 281 L 399.5 283 L 398.5 281 Z " /><path fill="rgb(66,132,243)" stroke="rgb(66,132,243)" stroke-width="1" opacity="0.9921568627450981" d="M 404.5 286 L 406.5 289 L 404.5 286 Z " /><path fill="rgb(233,67,53)" stroke="rgb(233,67,53)" stroke-width="1" opacity="0.996078431372549" d="M 263.5 168 L 409 290.5 L 222.5 513 Q 220.3 513.8 221 511.5 L 213 493.5 L 205 469.5 L 196 430.5 L 194 409.5 L 193 408.5 L 193 397.5 L 192 396.5 L 192 340.5 L 193 339.5 L 194 322.5 L 198 300.5 L 203 280.5 L 216 244.5 Q 234.8 201.3 263.5 168 Z " /><path fill="rgb(54,169,85)" stroke="rgb(54,169,85)" stroke-width="1" opacity="0.4980392156862745" d="M 772.5 224 L 778 234.5 L 777 234.5 L 772.5 224 Z " /><path fill="rgb(54,169,85)" stroke="rgb(54,169,85)" stroke-width="1" opacity="0.4980392156862745" d="M 780.5 240 L 783 245.5 L 782 245.5 L 780.5 240 Z " /><path fill="rgb(54,169,85)" stroke="rgb(54,169,85)" stroke-width="1" opacity="0.4980392156862745" d="M 783.5 247 L 785 250.5 L 784 250.5 L 783.5 247 Z " /><path fill="rgb(54,169,85)" stroke="rgb(54,169,85)" stroke-width="1" opacity="0.4980392156862745" d="M 787.5 257 L 789 260.5 L 788 260.5 L 787.5 257 Z " /><path fill="rgb(54,169,85)" stroke="rgb(54,169,85)" stroke-width="1" opacity="0.4980392156862745" d="M 794.5 277 L 795 279.5 L 794 279.5 L 794.5 277 Z " /><path fill="rgb(54,169,85)" stroke="rgb(54,169,85)" stroke-width="1" opacity="0.4980392156862745" d="M 796.5 284 L 797 286.5 L 796 286.5 L 796.5 284 Z " /><path fill="rgb(54,169,85)" stroke="rgb(54,169,85)" stroke-width="1" opacity="0.4980392156862745" d="M 799.5 296 L 800 298.5 L 799 298.5 L 799.5 296 Z " /><path fill="rgb(54,169,85)" stroke="rgb(54,169,85)" stroke-width="1" opacity="0.4980392156862745" d="M 800.5 300 L 801 302.5 L 800 302.5 L 800.5 300 Z " /><path fill="rgb(54,169,85)" stroke="rgb(54,169,85)" stroke-width="1" opacity="0.4980392156862745" d="M 801.5 305 L 802 307.5 L 801 307.5 L 801.5 305 Z " /><path fill="rgb(54,169,85)" stroke="rgb(54,169,85)" stroke-width="1" opacity="0.4980392156862745" d="M 802.5 310 L 803 313.5 L 802 313.5 L 802.5 310 Z " /><path fill="rgb(54,169,85)" stroke="rgb(54,169,85)" stroke-width="1" opacity="0.4980392156862745" d="M 803.5 316 L 804 319.5 L 803 319.5 L 803.5 316 Z " /><path fill="rgb(54,169,85)" stroke="rgb(54,169,85)" stroke-width="1" opacity="0.4980392156862745" d="M 804.5 322 L 805 326.5 L 804 326.5 L 804.5 322 Z " /><path fill="rgb(54,169,85)" stroke="rgb(54,169,85)" stroke-width="1" opacity="0.4980392156862745" d="M 805.5 330 L 806 334.5 L 805 334.5 L 805.5 330 Z " /><path fill="rgb(54,169,85)" stroke="rgb(54,169,85)" stroke-width="1" opacity="0.4980392156862745" d="M 806.5 340 L 807 346.5 L 806 346.5 L 806.5 340 Z " /><path fill="rgb(54,169,85)" stroke="rgb(54,169,85)" stroke-width="1" opacity="0.4980392156862745" d="M 807 358 L 809 358.5 L 809 377 L 807 376.5 L 807 358 Z " /><path fill="rgb(54,169,85)" stroke="rgb(54,169,85)" stroke-width="1" opacity="0.4980392156862745" d="M 806.5 389 L 807 396.5 L 806 396.5 L 806.5 389 Z " /><path fill="rgb(54,169,85)" stroke="rgb(54,169,85)" stroke-width="1" opacity="0.4980392156862745" d="M 805.5 403 L 806 408.5 L 805 408.5 L 805.5 403 Z " /><path fill="rgb(54,169,85)" stroke="rgb(54,169,85)" stroke-width="1" opacity="0.4980392156862745" d="M 804.5 412 L 805 416.5 L 804 416.5 L 804.5 412 Z " /><path fill="rgb(54,169,85)" stroke="rgb(54,169,85)" stroke-width="1" opacity="0.4980392156862745" d="M 803.5 420 L 804 423.5 L 803 423.5 L 803.5 420 Z " /><path fill="rgb(54,169,85)" stroke="rgb(54,169,85)" stroke-width="1" opacity="0.4980392156862745" d="M 802.5 427 L 803 430.5 L 802 430.5 L 802.5 427 Z " /><path fill="rgb(54,169,85)" stroke="rgb(54,169,85)" stroke-width="1" opacity="0.4980392156862745" d="M 801.5 433 L 802 435.5 L 801 435.5 L 801.5 433 Z " /><path fill="rgb(54,169,85)" stroke="rgb(54,169,85)" stroke-width="1" opacity="0.4980392156862745" d="M 595.5 434 L 594.5 436 L 595.5 434 Z " /><path fill="rgb(54,169,85)" stroke="rgb(54,169,85)" stroke-width="1" opacity="0.4980392156862745" d="M 592.5 438 L 589.5 442 L 592.5 438 Z " /><path fill="rgb(54,169,85)" stroke="rgb(54,169,85)" stroke-width="1" opacity="0.4980392156862745" d="M 800.5 438 L 801 441.5 L 800 441.5 L 800.5 438 Z " /><path fill="rgb(54,169,85)" stroke="rgb(54,169,85)" stroke-width="1" opacity="0.4980392156862745" d="M 588.5 443 L 585.5 447 L 588.5 443 Z " /><path fill="rgb(54,169,85)" stroke="rgb(54,169,85)" stroke-width="1" opacity="0.4980392156862745" d="M 799.5 443 L 800 445.5 L 799 445.5 L 799.5 443 Z " /><path fill="rgb(54,169,85)" stroke="rgb(54,169,85)" stroke-width="1" opacity="0.4980392156862745" d="M 798.5 448 L 799 450.5 L 798 450.5 L 798.5 448 Z " /><path fill="rgb(54,169,85)" stroke="rgb(54,169,85)" stroke-width="1" opacity="0.4980392156862745" d="M 797.5 452 L 798 454.5 L 797 454.5 L 797.5 452 Z " /><path fill="rgb(54,169,85)" stroke="rgb(54,169,85)" stroke-width="1" opacity="0.4980392156862745" d="M 796.5 456 L 797 458.5 L 796 458.5 L 796.5 456 Z " /><path fill="rgb(54,169,85)" stroke="rgb(54,169,85)" stroke-width="1" opacity="0.4980392156862745" d="M 795.5 460 L 796 462.5 L 795 462.5 L 795.5 460 Z " /><path fill="rgb(54,169,85)" stroke="rgb(54,169,85)" stroke-width="1" opacity="0.4980392156862745" d="M 793.5 467 L 794 469.5 L 793 469.5 L 793.5 467 Z " /><path fill="rgb(54,169,85)" stroke="rgb(54,169,85)" stroke-width="1" opacity="0.4980392156862745" d="M 790.5 477 L 791 479.5 L 788.5 485 L 788 483.5 L 790.5 477 Z " /><path fill="rgb(54,169,85)" stroke="rgb(54,169,85)" stroke-width="1" opacity="0.4980392156862745" d="M 785.5 492 L 786 493.5 L 784.5 496 L 784 494.5 L 785.5 492 Z " /><path fill="rgb(54,169,85)" stroke="rgb(54,169,85)" stroke-width="1" opacity="0.4980392156862745" d="M 781.5 502 L 782 503.5 L 780.5 506 L 780 504.5 L 781.5 502 Z " /><path fill="rgb(54,169,85)" stroke="rgb(54,169,85)" stroke-width="1" opacity="0.4980392156862745" d="M 779.5 507 L 780 508.5 L 777.5 513 L 777 511.5 L 779.5 507 Z " /><path fill="rgb(54,169,85)" stroke="rgb(54,169,85)" stroke-width="1" opacity="0.4980392156862745" d="M 775.5 516 L 776 517.5 L 765.5 537 L 766 535.5 L 775.5 516 Z " /><path fill="rgb(54,169,85)" stroke="rgb(54,169,85)" stroke-width="1" opacity="0.4980392156862745" d="M 762.5 542 L 762 543.5 L 759.5 548 L 760 546.5 L 762.5 542 Z " /><path fill="rgb(54,169,85)" stroke="rgb(54,169,85)" stroke-width="1" opacity="0.4980392156862745" d="M 758.5 549 L 758 550.5 L 756.5 553 L 757 551.5 L 758.5 549 Z " /><path fill="rgb(54,169,85)" stroke="rgb(54,169,85)" stroke-width="1" opacity="0.4980392156862745" d="M 755.5 554 L 755 555.5 L 753.5 558 L 754 556.5 L 755.5 554 Z " /><path fill="rgb(54,169,85)" stroke="rgb(54,169,85)" stroke-width="1" opacity="0.4980392156862745" d="M 752.5 559 L 752 560.5 L 750.5 563 L 751 561.5 L 752.5 559 Z " /><path fill="rgb(54,169,85)" stroke="rgb(54,169,85)" stroke-width="1" opacity="0.4980392156862745" d="M 749.5 564 L 748.5 566 L 749.5 564 Z " /><path fill="rgb(54,169,85)" stroke="rgb(54,169,85)" stroke-width="1" opacity="0.4980392156862745" d="M 747.5 567 L 747 568.5 L 734.5 587 L 736 584.5 L 747.5 567 Z " /><path fill="rgb(54,169,85)" stroke="rgb(54,169,85)" stroke-width="1" opacity="0.4980392156862745" d="M 733.5 588 L 732.5 590 L 733.5 588 Z " /><path fill="rgb(54,169,85)" stroke="rgb(54,169,85)" stroke-width="1" opacity="0.4980392156862745" d="M 731.5 591 L 730 593.5 L 727.5 597 L 729 594.5 L 731.5 591 Z " /><path fill="rgb(54,169,85)" stroke="rgb(54,169,85)" stroke-width="1" opacity="0.4980392156862745" d="M 726.5 598 L 725 600.5 L 706.5 625 L 709 621.5 L 726.5 598 Z " /><path fill="rgb(54,169,85)" stroke="rgb(54,169,85)" stroke-width="1" opacity="0.4980392156862745" d="M 705.5 626 L 703 629.5 L 699.5 634 L 702 630.5 L 705.5 626 Z " /><path fill="rgb(54,169,85)" stroke="rgb(54,169,85)" stroke-width="1" opacity="0.4980392156862745" d="M 698.5 635 L 696 638.5 L 688.5 648 L 691 644.5 L 698.5 635 Z " /><path fill="rgb(54,169,85)" stroke="rgb(54,169,85)" stroke-width="1" opacity="0.4980392156862745" d="M 687.5 649 L 684.5 653 L 687.5 649 Z " /><path fill="rgb(54,169,85)" stroke="rgb(54,169,85)" stroke-width="1" opacity="0.4980392156862745" d="M 683.5 654 L 680.5 658 L 683.5 654 Z " /><path fill="rgb(54,169,85)" stroke="rgb(54,169,85)" stroke-width="1" opacity="0.4980392156862745" d="M 679.5 659 L 676.5 663 L 679.5 659 Z " /><path fill="rgb(54,169,85)" stroke="rgb(54,169,85)" stroke-width="1" opacity="0.4980392156862745" d="M 675.5 664 L 672.5 668 L 675.5 664 Z " /><path fill="rgb(54,169,85)" stroke="rgb(54,169,85)" stroke-width="1" opacity="0.4980392156862745" d="M 671.5 669 L 668.5 673 L 671.5 669 Z " /><path fill="rgb(54,169,85)" stroke="rgb(54,169,85)" stroke-width="1" opacity="0.4980392156862745" d="M 667.5 674 L 664.5 678 L 667.5 674 Z " /><path fill="rgb(54,169,85)" stroke="rgb(54,169,85)" stroke-width="1" opacity="0.4980392156862745" d="M 663.5 679 L 661 682.5 L 653.5 692 L 656 688.5 L 663.5 679 Z " /><path fill="rgb(54,169,85)" stroke="rgb(54,169,85)" stroke-width="1" opacity="0.4980392156862745" d="M 652.5 693 L 650 696.5 L 646.5 701 L 649 697.5 L 652.5 693 Z " /><path fill="rgb(54,169,85)" stroke="rgb(54,169,85)" stroke-width="1" opacity="0.4980392156862745" d="M 645.5 702 L 643 705.5 L 639.5 710 L 642 706.5 L 645.5 702 Z " /><path fill="rgb(54,169,85)" stroke="rgb(54,169,85)" stroke-width="1" opacity="0.4980392156862745" d="M 638.5 711 L 636.5 714 L 638.5 711 Z " /><path fill="rgb(54,169,85)" stroke="rgb(54,169,85)" stroke-width="1" opacity="0.4980392156862745" d="M 363.5 715 L 375 729.5 L 372 727.5 L 363.5 715 Z " /><path fill="rgb(54,169,85)" stroke="rgb(54,169,85)" stroke-width="1" opacity="0.4980392156862745" d="M 635.5 715 L 633 718.5 L 624.5 730 L 626 727.5 L 635.5 715 Z " /><path fill="rgb(54,169,85)" stroke="rgb(54,169,85)" stroke-width="1" opacity="0.4980392156862745" d="M 375.5 731 L 377.5 734 L 375.5 731 Z " /><path fill="rgb(54,169,85)" stroke="rgb(54,169,85)" stroke-width="1" opacity="0.4980392156862745" d="M 623.5 731 L 621.5 734 L 623.5 731 Z " /><path fill="rgb(54,169,85)" stroke="rgb(54,169,85)" stroke-width="1" opacity="0.4980392156862745" d="M 378.5 735 L 386 744.5 L 383 742.5 L 378.5 735 Z " /><path fill="rgb(54,169,85)" stroke="rgb(54,169,85)" stroke-width="1" opacity="0.4980392156862745" d="M 620.5 735 L 619 737.5 L 613.5 745 L 615 742.5 L 620.5 735 Z " /><path fill="rgb(54,169,85)" stroke="rgb(54,169,85)" stroke-width="1" opacity="0.4980392156862745" d="M 386.5 746 L 391 751.5 L 388 749.5 L 386.5 746 Z " /><path fill="rgb(54,169,85)" stroke="rgb(54,169,85)" stroke-width="1" opacity="0.4980392156862745" d="M 612.5 746 L 611 748.5 L 606.5 755 L 608 752.5 L 612.5 746 Z " /><path fill="rgb(54,169,85)" stroke="rgb(54,169,85)" stroke-width="1" opacity="0.4980392156862745" d="M 391.5 753 L 392.5 755 L 391.5 753 Z " /><path fill="rgb(54,169,85)" stroke="rgb(54,169,85)" stroke-width="1" opacity="0.4980392156862745" d="M 393.5 756 L 402 767.5 L 399 765.5 L 393.5 756 Z " /><path fill="rgb(54,169,85)" stroke="rgb(54,169,85)" stroke-width="1" opacity="0.4980392156862745" d="M 605.5 756 L 604 758.5 L 597.5 768 L 599 765.5 L 605.5 756 Z " /><path fill="rgb(54,169,85)" stroke="rgb(54,169,85)" stroke-width="1" opacity="0.4980392156862745" d="M 402.5 769 L 403.5 771 L 402.5 769 Z " /><path fill="rgb(54,169,85)" stroke="rgb(54,169,85)" stroke-width="1" opacity="0.4980392156862745" d="M 596.5 769 L 595.5 771 L 596.5 769 Z " /><path fill="rgb(54,169,85)" stroke="rgb(54,169,85)" stroke-width="1" opacity="0.4980392156862745" d="M 404.5 772 L 405.5 774 L 404.5 772 Z " /><path fill="rgb(54,169,85)" stroke="rgb(54,169,85)" stroke-width="1" opacity="0.4980392156862745" d="M 594.5 772 L 593.5 774 L 594.5 772 Z " /><path fill="rgb(54,169,85)" stroke="rgb(54,169,85)" stroke-width="1" opacity="0.4980392156862745" d="M 406.5 775 L 407.5 777 L 406.5 775 Z " /><path fill="rgb(54,169,85)" stroke="rgb(54,169,85)" stroke-width="1" opacity="0.4980392156862745" d="M 592.5 775 L 591.5 777 L 592.5 775 Z " /><path fill="rgb(54,169,85)" stroke="rgb(54,169,85)" stroke-width="1" opacity="0.4980392156862745" d="M 408.5 778 L 415 787.5 L 413 786.5 L 408.5 778 Z " /><path fill="rgb(54,169,85)" stroke="rgb(54,169,85)" stroke-width="1" opacity="0.4980392156862745" d="M 590.5 778 L 590 779.5 L 584.5 788 L 585 786.5 L 590.5 778 Z " /><path fill="rgb(54,169,85)" stroke="rgb(54,169,85)" stroke-width="1" opacity="0.4980392156862745" d="M 415.5 789 L 416.5 791 L 415.5 789 Z " /><path fill="rgb(54,169,85)" stroke="rgb(54,169,85)" stroke-width="1" opacity="0.4980392156862745" d="M 583.5 789 L 582.5 791 L 583.5 789 Z " /><path fill="rgb(54,169,85)" stroke="rgb(54,169,85)" stroke-width="1" opacity="0.4980392156862745" d="M 417.5 792 L 420 795.5 L 418 794.5 L 417.5 792 Z " /><path fill="rgb(54,169,85)" stroke="rgb(54,169,85)" stroke-width="1" opacity="0.4980392156862745" d="M 581.5 792 L 581 793.5 L 579.5 796 L 580 794.5 L 581.5 792 Z " /><path fill="rgb(54,169,85)" stroke="rgb(54,169,85)" stroke-width="1" opacity="0.4980392156862745" d="M 420.5 797 L 423 800.5 L 421 799.5 L 420.5 797 Z " /><path fill="rgb(54,169,85)" stroke="rgb(54,169,85)" stroke-width="1" opacity="0.4980392156862745" d="M 578.5 797 L 578 798.5 L 576.5 801 L 577 799.5 L 578.5 797 Z " /><path fill="rgb(54,169,85)" stroke="rgb(54,169,85)" stroke-width="1" opacity="0.4980392156862745" d="M 423.5 802 L 426 805.5 L 424 804.5 L 423.5 802 Z " /><path fill="rgb(54,169,85)" stroke="rgb(54,169,85)" stroke-width="1" opacity="0.4980392156862745" d="M 575.5 802 L 575 803.5 L 573.5 806 L 574 804.5 L 575.5 802 Z " /><path fill="rgb(54,169,85)" stroke="rgb(54,169,85)" stroke-width="1" opacity="0.4980392156862745" d="M 427.5 809 L 431 814.5 L 429 813.5 L 427.5 809 Z " /><path fill="rgb(54,169,85)" stroke="rgb(54,169,85)" stroke-width="1" opacity="0.4980392156862745" d="M 571.5 809 L 571 810.5 L 568.5 815 L 569 813.5 L 571.5 809 Z " /><path fill="rgb(54,169,85)" stroke="rgb(54,169,85)" stroke-width="1" opacity="0.4980392156862745" d="M 441.5 836 L 444 841.5 L 443 841.5 L 441.5 836 Z " /><path fill="rgb(54,169,85)" stroke="rgb(54,169,85)" stroke-width="1" opacity="0.4980392156862745" d="M 557.5 836 L 558 837.5 L 555.5 842 L 555 840.5 L 557.5 836 Z " /><path fill="rgb(54,169,85)" stroke="rgb(54,169,85)" stroke-width="1" opacity="0.4980392156862745" d="M 445.5 845 L 447 848.5 L 446 848.5 L 445.5 845 Z " /><path fill="rgb(54,169,85)" stroke="rgb(54,169,85)" stroke-width="1" opacity="0.4980392156862745" d="M 553.5 845 L 554 846.5 L 552.5 849 L 552 847.5 L 553.5 845 Z " /><path fill="rgb(54,169,85)" stroke="rgb(54,169,85)" stroke-width="1" opacity="0.4980392156862745" d="M 448.5 852 L 450 855.5 L 449 855.5 L 448.5 852 Z " /><path fill="rgb(54,169,85)" stroke="rgb(54,169,85)" stroke-width="1" opacity="0.4980392156862745" d="M 550.5 852 L 551 853.5 L 549.5 856 L 549 854.5 L 550.5 852 Z " /><path fill="rgb(54,169,85)" stroke="rgb(54,169,85)" stroke-width="1" opacity="0.4980392156862745" d="M 547.5 860 L 548 861.5 L 546.5 864 L 546 862.5 L 547.5 860 Z " /><path fill="rgb(54,169,85)" stroke="rgb(54,169,85)" stroke-width="1" opacity="0.4980392156862745" d="M 454.5 868 L 456 871.5 L 455 871.5 L 454.5 868 Z " /><path fill="rgb(54,169,85)" stroke="rgb(54,169,85)" stroke-width="1" opacity="0.4980392156862745" d="M 544.5 868 L 545 869.5 L 543.5 872 L 543 870.5 L 544.5 868 Z " /><path fill="rgb(54,169,85)" stroke="rgb(54,169,85)" stroke-width="1" opacity="0.4980392156862745" d="M 462.5 891 L 464 896.5 L 463 896.5 L 462.5 891 Z " /><path fill="rgb(54,169,85)" stroke="rgb(54,169,85)" stroke-width="1" opacity="0.4980392156862745" d="M 536.5 891 L 537 893.5 L 535.5 897 L 535 894.5 L 536.5 891 Z " /><path fill="rgb(54,169,85)" stroke="rgb(54,169,85)" stroke-width="1" opacity="0.4980392156862745" d="M 469.5 913 L 471 916.5 L 470 916.5 L 469.5 913 Z " /><path fill="rgb(54,169,85)" stroke="rgb(54,169,85)" stroke-width="1" opacity="0.4980392156862745" d="M 529.5 913 L 530 914.5 L 528.5 917 L 528 915.5 L 529.5 913 Z " /><path fill="rgb(54,169,85)" stroke="rgb(54,169,85)" stroke-width="1" opacity="0.4980392156862745" d="M 471.5 918 L 477 928.5 L 475 927.5 L 471 919.5 L 471.5 918 Z " /><path fill="rgb(54,169,85)" stroke="rgb(54,169,85)" stroke-width="1" opacity="0.4980392156862745" d="M 527.5 918 L 528 919.5 L 525.5 924 L 525 922.5 L 527.5 918 Z " /><path fill="rgb(54,169,85)" stroke="rgb(54,169,85)" stroke-width="1" opacity="0.4980392156862745" d="M 524.5 925 L 524 926.5 L 522.5 929 L 523 927.5 L 524.5 925 Z " /><path fill="rgb(54,169,85)" stroke="rgb(54,169,85)" stroke-width="1" opacity="0.4980392156862745" d="M 477.5 930 L 483.5 937 L 477.5 930 Z " /><path fill="rgb(54,169,85)" stroke="rgb(54,169,85)" stroke-width="1" opacity="0.4980392156862745" d="M 521.5 930 L 514.5 938 L 511.5 939 L 511.5 938 Q 518.8 936.3 521.5 930 Z " /><path fill="rgb(54,169,85)" stroke="rgb(54,169,85)" stroke-width="1" opacity="0.4980392156862745" d="M 485.5 937 L 488 938.5 L 486.5 939 L 485.5 937 Z " /><path fill="rgb(54,169,85)" stroke="rgb(54,169,85)" stroke-width="1" opacity="0.4980392156862745" d="M 492.5 940 L 496 940.5 L 492.5 941 L 492.5 940 Z " /><path fill="rgb(54,169,85)" stroke="rgb(54,169,85)" stroke-width="1" opacity="0.4980392156862745" d="M 503.5 940 L 507 940.5 L 503.5 941 L 503.5 940 Z " /><path fill="rgb(250,187,4)" stroke="rgb(250,187,4)" stroke-width="1" opacity="0.9921568627450981" d="M 409.5 291 L 407 294.5 Q 393 312 386 336.5 L 383 351.5 L 382 371.5 L 383 372.5 L 384 388.5 L 391 411.5 Q 402.3 437.7 422.5 455 Q 438.1 468.9 459.5 477 L 483.5 483 L 506.5 484 L 507.5 483 L 515.5 483 L 526.5 481 L 544.5 475 Q 568.5 465 584.5 447 L 582 450.5 L 361.5 713 L 289 621.5 L 262 584.5 Q 238.8 552.2 222 513.5 L 409.5 291 Z " /><path fill="rgb(52,167,83)" stroke="rgb(52,167,83)" stroke-width="1" opacity="1" d="M 772.5 225 L 789 261.5 L 801 303.5 L 804 326.5 L 805 327.5 L 805 334.5 L 806 335.5 L 806 346.5 L 807 347.5 L 807 388.5 L 806 389.5 L 806 402.5 L 805 403.5 L 805 411.5 L 804 412.5 L 802 432.5 L 793 470.5 L 783 499.5 L 763 541.5 L 727 597.5 L 632 718.5 L 585 785.5 Q 568.2 811.2 555 840.5 L 543 870.5 L 535 897.5 L 525 924.5 L 514.5 937 Q 507.9 941.4 496.5 941 L 484.5 937 L 477 929.5 L 469 912.5 L 450 854.5 L 429 810.5 Q 398.5 758.5 362 712.5 L 772.5 225 Z " /></svg>