<svg width="180" height="180" version="1.1" xmlns="http://www.w3.org/2000/svg" desc="Created with imagetracer.js version 1.2.6" ><path fill="rgb(0,0,0)" stroke="rgb(0,0,0)" stroke-width="1" opacity="1" d="M 0 0 L 180 0 L 180 180 L 0 180 L 0 0 Z M 41 41 L 41 139 L 101 139 L 102 107 L 136 137 L 139 138 L 139 41 L 41 41 Z " /><path fill="rgb(0,0,0)" stroke="rgb(0,0,0)" stroke-width="1" opacity="1" d="M 53 53 L 126 53 L 126 112 L 124.5 112 L 89.5 81 L 89 127 L 53 127 L 53 53 Z " /><path fill="rgb(50,205,148)" stroke="rgb(50,205,148)" stroke-width="1" opacity="1" d="M 41 41 L 139 41 L 139 138 L 135.5 137 L 101.5 107 L 101 139 L 41 139 L 41 41 Z M 53 53 L 53 127 L 89 127 L 90 81 L 125 112 L 126 112 L 126 53 L 53 53 Z " /></svg>