<svg width="400" height="400" version="1.1" xmlns="http://www.w3.org/2000/svg" desc="Created with imagetracer.js version 1.2.6" ><path fill="rgb(178,218,244)" stroke="rgb(178,218,244)" stroke-width="1" opacity="1" d="M 124.5 56 L 125.5 58 L 124.5 56 Z " /><path fill="rgb(178,218,244)" stroke="rgb(178,218,244)" stroke-width="1" opacity="1" d="M 105.5 68 L 106.5 70 L 105.5 68 Z " /><path fill="rgb(178,218,244)" stroke="rgb(178,218,244)" stroke-width="1" opacity="1" d="M 95.5 77 L 94.5 79 L 93 78.5 L 95.5 77 Z " /><path fill="rgb(178,218,244)" stroke="rgb(178,218,244)" stroke-width="1" opacity="1" d="M 226.5 80 L 228.5 83 L 226.5 80 Z " /><path fill="rgb(178,218,244)" stroke="rgb(178,218,244)" stroke-width="1" opacity="1" d="M 149.5 97 L 152 98.5 L 150.5 98 L 149.5 97 Z " /><path fill="rgb(178,218,244)" stroke="rgb(178,218,244)" stroke-width="1" opacity="1" d="M 246.5 102 L 245.5 104 L 246.5 102 Z " /><path fill="rgb(178,218,244)" stroke="rgb(178,218,244)" stroke-width="1" opacity="1" d="M 188.5 105 L 187.5 107 L 188.5 105 Z " /><path fill="rgb(178,218,244)" stroke="rgb(178,218,244)" stroke-width="1" opacity="1" d="M 193.5 110 L 194.5 112 L 193.5 110 Z " /><path fill="rgb(178,218,244)" stroke="rgb(178,218,244)" stroke-width="1" opacity="1" d="M 255.5 115 L 254.5 117 L 255.5 115 Z " /><path fill="rgb(178,218,244)" stroke="rgb(178,218,244)" stroke-width="1" opacity="1" d="M 194.5 116 L 195.5 118 L 194.5 116 Z " /><path fill="rgb(178,218,244)" stroke="rgb(178,218,244)" stroke-width="1" opacity="1" d="M 202.5 121 L 201.5 123 L 202.5 121 Z " /><path fill="rgb(178,218,244)" stroke="rgb(178,218,244)" stroke-width="1" opacity="1" d="M 138.5 122 L 137.5 124 L 138.5 122 Z " /><path fill="rgb(178,218,244)" stroke="rgb(178,218,244)" stroke-width="1" opacity="1" d="M 137.5 140 L 136.5 142 L 137.5 140 Z " /><path fill="rgb(178,218,244)" stroke="rgb(178,218,244)" stroke-width="1" opacity="1" d="M 93.5 147 L 95 149.5 L 94 149.5 L 93.5 147 Z " /><path fill="rgb(178,218,244)" stroke="rgb(178,218,244)" stroke-width="1" opacity="1" d="M 72.5 151 L 71.5 153 L 72.5 151 Z " /><path fill="rgb(178,218,244)" stroke="rgb(178,218,244)" stroke-width="1" opacity="1" d="M 86.5 153 L 89 153.5 L 86.5 154 L 86.5 153 Z " /><path fill="rgb(178,218,244)" stroke="rgb(178,218,244)" stroke-width="1" opacity="1" d="M 141.5 153 L 142.5 155 L 141.5 153 Z " /><path fill="rgb(178,218,244)" stroke="rgb(178,218,244)" stroke-width="1" opacity="1" d="M 106.5 154 L 105.5 156 L 106.5 154 Z " /><path fill="rgb(178,218,244)" stroke="rgb(178,218,244)" stroke-width="1" opacity="1" d="M 138.5 157 L 139.5 159 L 138.5 157 Z " /><path fill="rgb(178,218,244)" stroke="rgb(178,218,244)" stroke-width="1" opacity="1" d="M 69.5 187 L 68.5 189 L 69.5 187 Z " /><path fill="rgb(178,218,244)" stroke="rgb(178,218,244)" stroke-width="1" opacity="1" d="M 67.5 192 L 68.5 194 L 67.5 192 Z " /><path fill="rgb(178,218,244)" stroke="rgb(178,218,244)" stroke-width="1" opacity="1" d="M 74.5 193 L 73.5 195 L 74.5 193 Z " /><path fill="rgb(178,218,244)" stroke="rgb(178,218,244)" stroke-width="1" opacity="1" d="M 103.5 196 L 104.5 198 L 103.5 196 Z " /><path fill="rgb(178,218,244)" stroke="rgb(178,218,244)" stroke-width="1" opacity="1" d="M 326.5 204 L 325.5 206 L 326.5 204 Z " /><path fill="rgb(178,218,244)" stroke="rgb(178,218,244)" stroke-width="1" opacity="1" d="M 138.5 210 L 137.5 212 L 138.5 210 Z " /><path fill="rgb(178,218,244)" stroke="rgb(178,218,244)" stroke-width="1" opacity="1" d="M 200.5 219 L 201.5 221 L 200.5 219 Z " /><path fill="rgb(178,218,244)" stroke="rgb(178,218,244)" stroke-width="1" opacity="1" d="M 120.5 233 Q 123.5 234.5 120.5 236 L 120.5 233 Z " /><path fill="rgb(178,218,244)" stroke="rgb(178,218,244)" stroke-width="1" opacity="1" d="M 199.5 233 L 200.5 235 L 199.5 233 Z " /><path fill="rgb(178,218,244)" stroke="rgb(178,218,244)" stroke-width="1" opacity="1" d="M 261.5 249 L 260.5 251 L 261.5 249 Z " /><path fill="rgb(178,218,244)" stroke="rgb(178,218,244)" stroke-width="1" opacity="1" d="M 240.5 254 L 239.5 256 L 240.5 254 Z " /><path fill="rgb(178,218,244)" stroke="rgb(178,218,244)" stroke-width="1" opacity="1" d="M 268.5 254 L 269.5 256 L 268.5 254 Z " /><path fill="rgb(178,218,244)" stroke="rgb(178,218,244)" stroke-width="1" opacity="1" d="M 222.5 274 L 221.5 276 L 222.5 274 Z " /><path fill="rgb(178,218,244)" stroke="rgb(178,218,244)" stroke-width="1" opacity="1" d="M 208.5 282 L 209.5 284 L 208.5 282 Z " /><path fill="rgb(178,218,244)" stroke="rgb(178,218,244)" stroke-width="1" opacity="1" d="M 333.5 288 L 334.5 290 L 333.5 288 Z " /><path fill="rgb(178,218,244)" stroke="rgb(178,218,244)" stroke-width="1" opacity="1" d="M 188.5 289 L 189.5 291 L 188.5 289 Z " /><path fill="rgb(178,218,244)" stroke="rgb(178,218,244)" stroke-width="1" opacity="1" d="M 129.5 290 L 128.5 292 L 129.5 290 Z " /><path fill="rgb(178,218,244)" stroke="rgb(178,218,244)" stroke-width="1" opacity="1" d="M 326.5 312 L 325.5 314 L 326.5 312 Z " /><path fill="rgb(178,218,244)" stroke="rgb(178,218,244)" stroke-width="1" opacity="1" d="M 323.5 315 L 324.5 317 L 323.5 315 Z " /><path fill="rgb(178,218,244)" stroke="rgb(178,218,244)" stroke-width="1" opacity="1" d="M 315.5 325 L 316.5 327 L 315.5 325 Z " /><path fill="rgb(178,218,244)" stroke="rgb(178,218,244)" stroke-width="1" opacity="1" d="M 139.5 334 L 138.5 336 L 139.5 334 Z " /><path fill="rgb(52,144,215)" stroke="rgb(52,144,215)" stroke-width="1" opacity="1" d="M 165.5 56 L 173 56.5 L 165.5 57 L 165.5 56 Z " /><path fill="rgb(52,144,215)" stroke="rgb(52,144,215)" stroke-width="1" opacity="1" d="M 138.5 57 L 143 57.5 L 138.5 58 L 138.5 57 Z " /><path fill="rgb(52,144,215)" stroke="rgb(52,144,215)" stroke-width="1" opacity="1" d="M 174.5 57 L 179.5 57 L 189 59.5 L 185.5 60 L 178.5 58 L 176.5 58 Q 173.5 58.5 174.5 57 Z " /><path fill="rgb(52,144,215)" stroke="rgb(52,144,215)" stroke-width="1" opacity="1" d="M 130.5 59 L 133 59.5 L 130.5 60 L 130.5 59 Z " /><path fill="rgb(52,144,215)" stroke="rgb(52,144,215)" stroke-width="1" opacity="1" d="M 126.5 60 L 128 60.5 L 121.5 63 L 121.5 62 L 126.5 60 Z " /><path fill="rgb(52,144,215)" stroke="rgb(52,144,215)" stroke-width="1" opacity="1" d="M 191.5 60 L 208.5 67 L 218 73.5 L 216.5 73 L 199.5 64 L 197.5 64 L 192.5 62 L 191.5 60 Z " /><path fill="rgb(52,144,215)" stroke="rgb(52,144,215)" stroke-width="1" opacity="1" d="M 118.5 63 L 120 63.5 L 104.5 72 L 105.5 70 L 118.5 63 Z " /><path fill="rgb(52,144,215)" stroke="rgb(52,144,215)" stroke-width="1" opacity="1" d="M 102.5 72 L 103 74 L 92 81.5 L 92.5 83 Q 90.8 80.3 89 84.5 L 83 95 L 80 96.5 L 79 98.5 L 79.5 100 Q 77.3 99.3 78 101.5 L 71.5 114 L 71 112.5 Q 78.8 92.3 93.5 79 L 102.5 72 Z " /><path fill="rgb(52,144,215)" stroke="rgb(52,144,215)" stroke-width="1" opacity="1" d="M 219 75 L 220.5 75 L 235 89.5 L 244 104.5 L 242 103.5 L 241 100 Q 238 101.3 239 97.5 L 227.5 83 L 225 81.5 L 222.5 78 L 219 77 L 219 75 Z " /><path fill="rgb(52,144,215)" stroke="rgb(52,144,215)" stroke-width="1" opacity="1" d="M 154.5 95 Q 155.8 97.3 160.5 96 L 162.5 96 L 164.5 95 L 173 97.5 L 169.5 98 L 168.5 97 L 149.5 97 L 134.5 101 L 120 112.5 Q 114.5 117.8 113 126 L 111 125.5 Q 113.6 124.1 113 119.5 Q 110.8 118.3 113.5 117 L 113.5 119 L 116 117.5 L 120 110.5 Q 117.8 109.3 120.5 108 L 122.5 108 L 132.5 101 Q 138.7 100.7 141.5 97 L 143.5 97 L 148.5 97 L 154.5 95 Z " /><path fill="rgb(52,144,215)" stroke="rgb(52,144,215)" stroke-width="1" opacity="1" d="M 175.5 97 L 181.5 100 L 184.5 100 L 196 107 L 196.5 109 L 198 108.5 Q 195.3 110.3 199.5 112 L 202 113.5 L 204 119.5 L 203 119.5 Q 199.3 110.7 191.5 106 L 180.5 100 L 175 99 L 175.5 97 Z " /><path fill="rgb(52,144,215)" stroke="rgb(52,144,215)" stroke-width="1" opacity="1" d="M 244.5 106 Q 250.2 115.8 252 129.5 L 251 129.5 L 246 110 L 244 109.5 L 244 107.5 L 244.5 106 Z " /><path fill="rgb(52,144,215)" stroke="rgb(52,144,215)" stroke-width="1" opacity="1" d="M 70 115 L 72 115.5 L 70.5 118 L 70 115 Z " /><path fill="rgb(52,144,215)" stroke="rgb(52,144,215)" stroke-width="1" opacity="1" d="M 186.5 117 L 189 117.5 L 186.5 118 L 186.5 117 Z " /><path fill="rgb(52,144,215)" stroke="rgb(52,144,215)" stroke-width="1" opacity="1" d="M 69 119 L 71 119.5 L 68.5 125 L 68 122.5 L 69 119 Z " /><path fill="rgb(52,144,215)" stroke="rgb(52,144,215)" stroke-width="1" opacity="1" d="M 204.5 121 Q 207.1 120.2 206 123.5 L 210 132.5 L 209 133.5 L 211 137.5 L 211 145.5 L 210 146.5 L 211 151.5 L 210 154.5 L 211 179.5 L 210 181.5 L 211 186.5 L 210 188.5 L 211 207.5 L 212 210.5 L 206.5 225 L 206 223.5 L 209 214.5 L 209 135.5 L 204.5 121 Z " /><path fill="rgb(52,144,215)" stroke="rgb(52,144,215)" stroke-width="1" opacity="1" d="M 68.5 126 L 69 127.5 L 67.5 133 L 67 127.5 L 68.5 126 Z " /><path fill="rgb(52,144,215)" stroke="rgb(52,144,215)" stroke-width="1" opacity="1" d="M 111.5 127 L 112 128.5 L 111 133 L 109 132.5 L 111.5 127 Z " /><path fill="rgb(52,144,215)" stroke="rgb(52,144,215)" stroke-width="1" opacity="1" d="M 66.5 134 L 67 136.5 L 66 136.5 L 66.5 134 Z " /><path fill="rgb(52,144,215)" stroke="rgb(52,144,215)" stroke-width="1" opacity="1" d="M 251.5 135 L 253 136.5 L 253 205.5 L 252 205.5 L 251 200.5 Q 253.2 199.3 252 194.5 L 252 184.5 L 251 181.5 L 252 176.5 L 251 173.5 L 252 171.5 L 252 169.5 L 251 167.5 L 252 164.5 L 251 161.5 L 252 158.5 L 251 155.5 L 252 152.5 L 252 148.5 L 251 145.5 Q 253.5 144 252 138.5 L 251.5 135 Z " /><path fill="rgb(52,144,215)" stroke="rgb(52,144,215)" stroke-width="1" opacity="1" d="M 109.5 137 L 110 140.5 L 109 141.5 L 109 153.5 L 108 154.5 L 108.5 156 Q 100.8 145.7 82 146.5 L 86.5 145 L 89.5 146 L 93.5 146 L 104 150 Q 102.9 152.7 105.5 152 L 108 153 L 107 148.5 L 108 144.5 L 108 142.5 L 109.5 137 Z " /><path fill="rgb(52,144,215)" stroke="rgb(52,144,215)" stroke-width="1" opacity="1" d="M 66.5 144 L 68 148.5 L 67 151.5 Q 68.8 154.8 70.5 151 L 76 147.5 L 75.5 146 L 77.5 147 L 81 146.5 Q 81.8 149.1 78.5 148 Q 70.8 150.8 66.5 157 L 66.5 144 Z " /><path fill="rgb(52,144,215)" stroke="rgb(52,144,215)" stroke-width="1" opacity="1" d="M 108.5 194 L 109 211.5 L 107 212.5 L 108 210.5 L 108 206.5 L 107 200.5 Q 109.3 199.3 106.5 198 L 98.5 203 L 89.5 205 L 89.5 204 Q 102.1 202.1 108.5 194 Z " /><path fill="rgb(52,144,215)" stroke="rgb(52,144,215)" stroke-width="1" opacity="1" d="M 66 195 L 70 197.5 L 68 198 L 67.5 196 L 66.5 201 L 66 195 Z " /><path fill="rgb(52,144,215)" stroke="rgb(52,144,215)" stroke-width="1" opacity="1" d="M 71.5 198 Q 75.8 202.7 84 203.5 L 80.5 204 L 74.5 201 Q 73.3 203.3 72 200.5 L 71.5 198 Z " /><path fill="rgb(52,144,215)" stroke="rgb(52,144,215)" stroke-width="1" opacity="1" d="M 85.5 204 L 88 204.5 L 85.5 205 L 85.5 204 Z " /><path fill="rgb(52,144,215)" stroke="rgb(52,144,215)" stroke-width="1" opacity="1" d="M 66.5 206 L 67 208.5 L 66 208.5 L 66.5 206 Z " /><path fill="rgb(52,144,215)" stroke="rgb(52,144,215)" stroke-width="1" opacity="1" d="M 66.5 214 L 67 216.5 L 66 216.5 L 66.5 214 Z " /><path fill="rgb(52,144,215)" stroke="rgb(52,144,215)" stroke-width="1" opacity="1" d="M 67.5 218 L 73 240.5 L 80 253.5 L 78 252.5 L 70 235.5 L 67 223.5 L 67.5 218 Z " /><path fill="rgb(52,144,215)" stroke="rgb(52,144,215)" stroke-width="1" opacity="1" d="M 110.5 219 L 112 223.5 L 110 222.5 L 110.5 219 Z " /><path fill="rgb(52,144,215)" stroke="rgb(52,144,215)" stroke-width="1" opacity="1" d="M 112.5 225 L 114 228.5 L 112 227.5 L 112.5 225 Z " /><path fill="rgb(52,144,215)" stroke="rgb(52,144,215)" stroke-width="1" opacity="1" d="M 205 226 L 207 226.5 L 203.5 231 L 204 229.5 L 205 226 Z " /><path fill="rgb(52,144,215)" stroke="rgb(52,144,215)" stroke-width="1" opacity="1" d="M 114.5 230 L 117 233.5 L 115 234 L 114.5 230 Z " /><path fill="rgb(52,144,215)" stroke="rgb(52,144,215)" stroke-width="1" opacity="1" d="M 202.5 232 L 202 233.5 L 193.5 245 L 190.5 247 L 191 252.5 L 190 256.5 L 190 258.5 L 191 260.5 L 190 287.5 L 191.5 289 L 199.5 286 L 199.5 287 L 189 290 L 189 245.5 L 190.5 244 L 201 234.5 L 202.5 232 Z " /><path fill="rgb(52,144,215)" stroke="rgb(52,144,215)" stroke-width="1" opacity="1" d="M 117.5 235 L 129 245.5 L 128.5 291 Q 100.8 282.7 85 262.5 L 80 255.5 L 81.5 256 L 84 256.5 L 84 258.5 L 91.5 268 Q 93.8 267.3 93 269.5 L 95 269.5 L 94 270.5 L 97.5 274 L 99 273.5 L 101.5 277 L 122.5 288 L 124.5 288 L 126.5 289 L 128 287.5 L 128 283.5 Q 129.5 278 127 276.5 L 128 273.5 L 127 270.5 L 128 267.5 L 128 265.5 L 127 262.5 L 128 260.5 L 128 256.5 L 127 254.5 L 128 252.5 L 128 250.5 L 127 245 L 118 237.5 L 117.5 235 Z " /><path fill="rgb(52,144,215)" stroke="rgb(52,144,215)" stroke-width="1" opacity="1" d="M 242.5 247 L 242 248.5 Q 234.1 264.6 220.5 275 L 208.5 282 L 209.5 280 L 218 276 L 219.5 273 L 224 270.5 L 227.5 266 Q 229.8 266.8 229 264.5 L 236 256.5 L 236 254.5 Q 235.3 252.3 237.5 253 L 238.5 250 L 242.5 247 Z " /><path fill="rgb(52,144,215)" stroke="rgb(52,144,215)" stroke-width="1" opacity="1" d="M 203.5 282 L 207 283.5 L 201.5 286 L 202.5 284 L 204 283.5 L 203.5 282 Z " /><path fill="rgb(253,255,254)" stroke="rgb(253,255,254)" stroke-width="1" opacity="1" d="M 0 0 L 400 0 L 400 400 L 0 400 L 0 0 Z M 142 56 L 121 62 L 119 62 L 118 64 L 113 66 L 111 66 L 110 68 L 93 78 L 77 100 L 72 112 Q 68 113 71 115 L 69 118 L 68 127 Q 64 128 67 130 L 66 134 L 66 153 L 65 156 L 67 157 L 75 150 L 82 148 L 84 148 L 85 147 L 93 147 L 95 150 L 95 148 L 100 150 Q 102 149 101 152 L 103 151 L 108 155 L 109 157 L 110 153 L 109 150 L 109 148 L 111 130 Q 113 121 118 117 Q 117 114 120 115 L 121 112 L 125 109 L 129 105 L 130 106 L 130 105 Q 134 101 141 100 L 145 98 L 147 99 L 154 97 L 156 97 Q 160 96 162 98 L 164 97 L 166 97 L 178 99 L 181 101 Q 184 100 183 103 L 185 102 L 196 111 Q 195 113 198 112 L 204 122 L 204 124 L 206 124 L 207 128 L 206 130 L 208 130 L 207 133 L 209 136 L 209 212 L 209 214 L 206 226 L 200 236 L 191 244 L 189 246 L 189 289 Q 187 290 190 291 L 193 290 L 195 290 L 195 288 L 201 287 L 203 287 L 203 285 L 209 283 Q 210 279 212 282 L 212 280 Q 222 276 229 267 Q 231 268 230 265 L 232 265 L 235 261 Q 234 258 237 259 L 242 250 Q 241 247 248 248 L 250 248 Q 256 246 258 249 L 261 248 L 262 250 L 265 249 L 267 249 L 279 254 L 285 260 Q 284 262 287 261 L 290 268 L 289 271 L 291 275 L 290 283 L 286 291 Q 281 297 273 300 L 258 303 L 181 303 L 181 218 L 178 211 L 171 203 L 161 200 Q 152 200 147 204 Q 139 209 137 220 L 137 325 L 136 326 L 138 326 L 139 333 L 139 335 Q 144 341 153 344 L 267 344 L 286 340 L 299 335 L 314 325 Q 324 316 330 303 Q 329 299 332 300 L 331 299 L 334 289 L 334 268 Q 331 252 323 243 Q 314 232 300 226 L 315 215 L 321 205 Q 320 202 323 203 L 322 202 L 325 195 L 326 184 L 327 183 L 327 175 L 326 174 L 325 163 L 315 143 Q 308 134 299 129 L 297 127 L 296 127 L 288 123 L 274 119 L 258 118 L 261 135 L 261 160 Q 269 161 275 165 Q 281 169 283 179 L 282 181 L 283 183 L 283 185 Q 283 192 279 196 Q 272 203 260 206 Q 254 207 253 205 Q 251 198 254 197 Q 252 195 253 190 L 253 188 Q 252 182 254 181 Q 252 179 253 174 L 253 172 L 254 167 L 253 162 L 253 160 L 253 152 L 254 151 L 253 150 L 252 129 L 252 127 L 247 111 L 247 109 L 245 108 Q 240 93 229 83 Q 222 75 213 70 L 211 68 L 210 68 L 198 62 L 175 56 L 145 56 L 144 57 L 142 56 Z M 156 117 L 145 122 Q 139 127 137 136 Q 137 146 142 152 Q 147 158 156 159 L 202 159 L 201 158 L 201 139 Q 199 137 200 133 L 194 121 L 191 117 L 156 117 Z M 82 153 L 81 155 L 79 155 L 73 159 L 66 170 Q 64 183 70 189 Q 69 191 72 190 L 74 194 L 76 193 L 81 196 L 83 196 L 85 197 L 87 197 L 90 198 L 101 193 Q 107 189 109 181 Q 111 169 106 164 L 99 156 L 89 153 L 86 154 L 82 153 Z M 67 194 L 65 199 L 66 200 L 66 219 L 71 240 L 87 266 L 108 282 L 122 288 Q 123 291 125 289 L 128 290 L 129 292 Q 131 291 129 290 L 129 276 L 130 275 L 129 274 L 129 246 L 128 244 L 125 242 Q 116 235 112 225 L 109 212 L 109 194 Q 103 200 95 203 L 93 202 L 90 204 Q 73 204 67 194 Z " /><path fill="rgb(17,67,120)" stroke="rgb(17,67,120)" stroke-width="1" opacity="1" d="M 166.5 117 L 169.5 119 L 170.5 117 L 171.5 119 Q 173.5 115 175.5 119 L 177.5 120 L 179.5 119 L 181.5 119 L 183.5 120 L 185.5 119 L 187.5 119 L 189.5 120 Q 190.8 117.8 192 120.5 Q 191.3 122.8 193.5 122 L 197 127.5 L 196.5 129 L 198 129.5 L 197 133 L 199 133.5 L 199 135.5 Q 200.8 141.8 198 143.5 L 200 144.5 L 199 149.5 L 200 151.5 L 200 153.5 Q 200.8 155.8 198.5 155 L 194.5 155 L 192.5 157 L 159.5 157 L 157.5 156 L 155.5 156 L 147.5 154 L 145.5 152 L 144 152.5 L 145.5 150 L 142 148.5 L 141 144 L 138.5 145 L 139 143.5 L 140 141.5 L 139 138.5 L 140 133.5 L 141 131.5 L 141 129.5 L 143 125.5 Q 140.3 123.7 144.5 122 L 149.5 122 Q 153 118.5 159.5 118 L 164.5 119 L 166.5 117 Z " /><path fill="rgb(17,67,120)" stroke="rgb(17,67,120)" stroke-width="1" opacity="1" d="M 262.5 118 L 266 119.5 L 266.5 121 L 268.5 121 L 272.5 120 L 275.5 121 L 277.5 122 L 279 121.5 L 278.5 123 L 287.5 124 L 293.5 127 L 295 126.5 L 294.5 128 L 298 129.5 L 297.5 131 L 300.5 133 L 301.5 132 L 306 135.5 L 306.5 134 L 307 135.5 L 306.5 137 Q 308.8 136.3 308 138.5 L 309 141 Q 311.7 139.9 311 142.5 L 313 142.5 L 312.5 144 L 316 146.5 L 315 148.5 L 319 150 L 320 157 L 322 157.5 L 322 159.5 L 325 171.5 L 325 173.5 L 325 183.5 L 324 184.5 L 324 188.5 L 324.5 190 L 326 189.5 L 322 194.5 L 322 196.5 L 319 201.5 L 319 205.5 L 319.5 207 Q 317.8 204.3 316 208.5 L 313 214 L 311 214 Q 312.1 216.7 309.5 216 L 303 221.5 Q 305.3 222.8 302.5 224 L 300 223 L 299 225.5 L 302.5 230 Q 310.3 231.7 315 236.5 L 315.5 239 L 317 238.5 L 317.5 240 Q 318.8 237.8 320 240.5 L 320 242.5 L 327 251.5 L 326.5 253 L 329 254.5 L 331 262.5 Q 328.5 264 332 265.5 L 334 270.5 L 333 271.5 L 333 287.5 L 330 292.5 L 330 294.5 L 328 298.5 L 330 299.5 L 328 300.5 L 329 301.5 L 325 305.5 Q 324 312.5 319 315.5 L 319.5 319 Q 318 316.5 316.5 320 L 313.5 322 L 310 324 Q 311.1 326.7 308.5 326 Q 306.8 329.1 305 327.5 L 303.5 331 L 299.5 331 L 297 332.5 L 296.5 334 L 295 333.5 Q 295.8 336.1 292.5 335 L 287.5 338 L 285.5 337 L 283.5 338 L 281.5 338 L 273.5 341 L 272 340.5 L 271.5 342 L 270.5 340 L 270 342 L 266.5 341 L 266.5 343 L 260.5 343 L 256.5 344 L 255.5 343 L 157.5 343 L 154.5 341 L 154.5 343 L 150.5 339 Q 145.8 339.8 145 336.5 L 142.5 333 Q 139.9 333.8 141 330.5 L 139 326.5 L 139 324.5 L 138 322.5 L 139 313.5 L 138 310.5 L 139 308.5 L 139 306.5 L 138 304.5 Q 141.5 303 139 301.5 L 138 298.5 L 140 292.5 L 139 290.5 L 139 288.5 L 138 286.5 L 139 283.5 L 139 279.5 L 138 276.5 L 139 273.5 L 139 271.5 L 138 266.5 L 139 263.5 L 139 261.5 L 138 258.5 L 139 256.5 L 138 251.5 L 140 244.5 L 138 240.5 L 139 237.5 L 139 235.5 L 138 232.5 L 139 229.5 L 139 227.5 L 138 225.5 L 140 219.5 L 139 218.5 Q 143.3 216.3 141.5 214 L 143 213.5 L 143 211.5 L 145.5 206 L 146.5 208 L 149.5 205 L 156.5 202 L 158.5 203 L 158 201.5 Q 157.3 199.3 159.5 200 L 159.5 202 L 167 203 L 167.5 205 L 169 204.5 L 169.5 207 L 171 206.5 Q 170.2 209.1 173.5 208 L 176 209.5 L 176 211.5 L 177.5 214 L 179 213.5 L 179 215.5 Q 180.5 221 178 222.5 L 180 226.5 L 180 228.5 L 179 230.5 L 180 233.5 L 180 237.5 L 179 240.5 L 179 242.5 Q 178.2 247.8 181 249.5 L 179 256.5 L 179 258.5 L 180 261.5 L 179 264.5 L 180 267.5 L 179 270.5 L 179 272.5 L 180 277.5 L 179 282.5 L 179 284.5 L 180 288.5 L 179 290.5 L 180 292.5 L 179 295.5 L 180 297.5 L 179 300.5 Q 178.3 302.8 180.5 302 L 180.5 303 L 179 303.5 L 182.5 305 L 188.5 305 L 190.5 304 L 192.5 305 L 194.5 305 L 196.5 304 L 198.5 305 L 200.5 305 L 202.5 304 L 256.5 304 L 261.5 304 L 267.5 302 L 269.5 302 L 275.5 300 Q 276.8 302.3 278 299.5 L 277.5 298 Q 279 300.5 280.5 297 L 284 296.5 L 283.5 295 Q 285.8 295.8 285 293.5 L 290 287.5 L 293 277.5 L 292 274.5 L 293 270.5 L 292 267.5 L 289 260 Q 286.3 261.1 287 258.5 L 285 258.5 Q 287.8 256.7 283.5 255 L 281.5 254 L 280 254.5 L 281 252.5 L 278 251.5 Q 278.8 249.3 276.5 250 L 276.5 252 L 274.5 249 L 272.5 250 L 269.5 249 L 267.5 248 Q 266 250.5 264.5 247 L 260.5 248 L 259.5 247 L 251.5 247 L 249.5 247 L 245.5 246 L 243 247.5 L 250 229.5 L 252 219.5 L 252 210.5 L 253.5 206 L 257.5 207 L 259.5 207 L 264.5 206 L 266 206.5 Q 265.3 204.3 267.5 205 L 269.5 202 L 270.5 204 L 273 202.5 L 272.5 201 L 273.5 202 L 280 195.5 L 279.5 194 Q 280.8 196.2 282 193.5 L 284 189.5 L 282.5 187 L 284 187.5 L 285 182.5 Q 282.3 180.8 284 174.5 L 278 165 Q 275.3 166.1 276 163.5 L 267.5 159 L 263 159 L 262 156.5 L 263 153.5 L 262 150.5 L 263 145.5 L 262 142.5 L 262 138.5 L 263 136.5 L 261 133.5 L 263 129.5 L 261 129 L 260 125.5 L 261.5 123 L 260 122.5 L 260 120.5 L 260.5 119 L 262 119.5 L 262.5 118 Z M 268 122 L 266 123 L 266 124 L 270 123 L 268 122 Z M 284 200 L 283 202 L 280 203 Q 279 205 283 204 Q 287 202 284 200 Z M 271 246 L 272 248 Q 273 245 271 246 Z " /><path fill="rgb(17,67,120)" stroke="rgb(17,67,120)" stroke-width="1" opacity="1" d="M 85.5 154 L 88.5 155 L 90.5 155 Q 92.8 154.3 92 156.5 L 93 156.5 L 93.5 155 Q 95.3 158.1 97 156.5 L 97.5 159 L 98.5 157 L 99 159 Q 101.7 157.9 101 160.5 L 102 165 L 104 165 L 104 167 Q 106.7 165.9 106 168.5 L 106.5 171 L 108 171.5 L 106 172.5 L 106 176.5 L 106 182.5 L 104 183 L 104 184.5 Q 100.9 186.3 102.5 188 L 100 189.5 L 101 191.5 Q 99.3 189.9 97.5 193 L 91.5 195 L 89.5 195 L 86.5 194 L 84.5 194 L 82.5 195 L 80 194 L 79.5 192 L 76 193 Q 77.1 190.3 74.5 191 L 72.5 188 L 74 187.5 L 71 187 L 67 178.5 L 69 177.5 L 67 176.5 L 67 174.5 L 68 171.5 L 68 169.5 Q 67.3 167.3 69.5 168 L 69.5 166 L 71 165.5 L 70.5 164 L 72 164.5 L 71 162.5 L 75 160.5 L 74.5 159 Q 76 161.5 77.5 158 L 79 157.5 L 76 156.5 L 78.5 156 L 80.5 156 L 82.5 155 Q 84 157.5 85.5 154 Z M 75 188 Q 73 191 76 190 L 75 188 Z " /><path fill="rgb(34,151,243)" stroke="rgb(34,151,243)" stroke-width="1" opacity="1" d="M 145.5 56 L 147.5 57 L 159.5 57 L 161.5 56 L 163.5 57 L 165.5 57 Q 173.8 55.7 177.5 59 L 179.5 59 L 190.5 60 L 198.5 65 L 200.5 65 L 219 74 Q 217.5 77.8 220.5 77 L 225 80.5 L 226.5 83 L 230 85.5 L 239 97.5 L 239 100 Q 241.7 98.9 241 101.5 L 245 108.5 L 244.5 110 Q 247.1 109.2 246 112.5 L 249 119.5 L 250 127.5 L 252 130.5 L 252 138.5 Q 253.5 144 251 145.5 L 252 148.5 L 252 152.5 L 251 155.5 L 252 158.5 L 252 162.5 L 251 165.5 L 252 168.5 L 251 170.5 L 252 172.5 L 252 174.5 L 251 177.5 L 252 182.5 L 251 185.5 L 252 194.5 L 251 201.5 L 253 208.5 L 252 209.5 L 252 219.5 L 250 228.5 L 244 245.5 L 239.5 250 L 238 250.5 Q 240.3 251.8 237.5 253 Q 235.3 252.3 236 254.5 L 235 257.5 L 229 266 L 224 269.5 L 222.5 272 L 218 274.5 Q 218.8 276.8 216.5 276 L 208 281.5 Q 208.9 284.5 204.5 283 L 200.5 286 L 197.5 286 L 191.5 289 L 190 287.5 L 190 259.5 L 191 257.5 L 191 255.5 L 190 251.5 L 190.5 247 L 193.5 245 L 207 226.5 Q 204.5 225 208 223.5 Q 208.2 215.2 212 210.5 L 210 206.5 L 211 187.5 L 210 185.5 L 211 180.5 L 210 178.5 L 211 153.5 L 210 150.5 L 211 145.5 L 211 137.5 L 210 136.5 L 211 135.5 L 209 131.5 L 206 121 Q 203 122.3 204 118.5 L 200.5 112 L 196 108.5 Q 196.8 106.3 194.5 107 L 184.5 100 L 181.5 100 L 175.5 97 L 173.5 98 L 164.5 95 L 162.5 96 L 160.5 96 Q 155.8 97.3 154.5 95 L 142.5 98 Q 141 95.5 139.5 99 Q 125.6 102.6 118 112.5 L 114.5 119 Q 111.5 118.1 113 122.5 L 111 125.5 L 111 127.5 L 109 132.5 L 110 135.5 L 107 143.5 L 108 147.5 L 107 149.5 L 108 153 L 104 152 Q 105.3 149 101.5 150 L 99.5 148 L 88.5 145 L 86.5 145 L 81.5 147 L 77.5 147 L 68.5 153 L 67 149.5 L 67 147.5 L 66 143.5 L 67 136.5 L 69 126.5 L 69 124.5 L 71 119.5 L 71 117.5 L 72 115.5 Q 69.5 114 73 112.5 L 78 100 L 80 99.5 L 80 97.5 L 81.5 95 Q 83.8 95.8 83 93.5 L 92.5 81 L 103 74 Q 101.8 71 105.5 72 L 120.5 63 L 133.5 59 L 135 59.5 L 135.5 58 L 137.5 58 Q 143.5 59 145.5 56 Z " /><path fill="rgb(34,151,243)" stroke="rgb(34,151,243)" stroke-width="1" opacity="1" d="M 67.5 196 L 68 198 L 72 199.5 L 73.5 202 Q 75 199.5 76.5 203 L 87.5 205 L 89.5 205 L 98.5 203 L 106.5 198 Q 109.3 199.3 107 200.5 L 108 206.5 L 108 210.5 L 110 215.5 L 110 217.5 L 110 222.5 L 112 224.5 L 112 227.5 Q 115.6 229.4 115 234 Q 117.7 232.9 117 235.5 L 125.5 245 Q 128.1 244.2 127 247.5 L 128 250.5 L 128 252.5 L 127 254.5 L 128 256.5 L 128 260.5 L 127 262.5 L 128 265.5 L 128 267.5 L 127 270.5 L 128 273.5 L 128 277.5 Q 129.5 283 127 284.5 L 128 287.5 L 126.5 289 L 123.5 287 L 121.5 287 L 116.5 284 L 111.5 283 L 99 274.5 L 98.5 273 L 97.5 274 L 93 269.5 Q 93.8 267.3 91.5 268 L 83 257.5 L 83.5 256 L 80 254.5 L 73 240.5 L 66 213.5 L 67 208.5 L 66 205.5 L 67 200.5 L 67.5 196 Z " /><path fill="rgb(27,63,95)" stroke="rgb(27,63,95)" stroke-width="1" opacity="1" d="M 156.5 117 L 165.5 117 L 167 118.5 L 159.5 118 L 158 118.5 L 158.5 120 L 154.5 119 Q 152.6 122.6 146.5 122 L 147.5 120 L 156.5 117 Z " /><path fill="rgb(27,63,95)" stroke="rgb(27,63,95)" stroke-width="1" opacity="1" d="M 175.5 118 L 191.5 118 L 193 119.5 L 198 129 L 196 128.5 L 196 126.5 L 194.5 123 L 193 123.5 L 193.5 122 Q 191.3 122.8 192 120.5 L 188.5 119 L 186.5 120 L 184.5 119 L 182.5 119 L 180.5 120 L 178.5 119 L 176.5 119 L 175.5 118 Z " /><path fill="rgb(27,63,95)" stroke="rgb(27,63,95)" stroke-width="1" opacity="1" d="M 258 118 L 262 118 L 262 119.5 L 260 119.5 L 261 121.5 L 260.5 123 L 262.5 122 L 261 126.5 Q 259.9 129.8 262.5 129 L 262 130.5 L 263 133.5 L 262 135.5 L 263.5 138 L 262 137.5 L 263 139.5 L 262 140.5 L 264.5 144 L 262 142.5 L 263 145.5 L 263 151.5 L 262 154.5 L 263 157.5 Q 262.1 160.9 267.5 159 L 274.5 162 L 277 160.5 Q 273.5 162 276 163.5 L 278 166.5 L 284 174.5 L 285 183.5 L 283 188.5 L 283 190.5 L 282 193.5 L 272.5 203 L 269.5 205 L 267.5 205 Q 265.3 204.3 266 206.5 L 263.5 207 L 259 206.5 L 268.5 203 L 270 203.5 L 271.5 201 L 273 201.5 L 274.5 199 L 280 194.5 Q 284.5 189 283 177.5 Q 280.9 169.2 274.5 165 Q 269.2 160.7 261 160 L 261 134.5 L 262 133.5 L 260 133 L 260 126.5 L 258 118 Z " /><path fill="rgb(27,63,95)" stroke="rgb(27,63,95)" stroke-width="1" opacity="1" d="M 265.5 118 L 270.5 120 L 272.5 119 L 273.5 121 L 271.5 121 L 267.5 120 L 266 120.5 L 265.5 118 Z " /><path fill="rgb(27,63,95)" stroke="rgb(27,63,95)" stroke-width="1" opacity="1" d="M 275.5 120 Q 278.8 118.9 278 121.5 L 279.5 121 Q 296.2 124.3 306 134.5 L 306.5 136 L 307.5 135 L 314 141.5 L 323 156.5 L 326 167.5 L 327 180.5 Q 324.3 182.2 326 188.5 L 324 190.5 L 325 193.5 Q 320.1 211.1 307.5 221 L 304.5 223 Q 303.3 220.8 302 223.5 Q 302.8 225.8 300.5 225 L 301.5 227 Q 314.2 231.8 322 241.5 Q 331.4 252.1 334 269.5 L 333 269.5 L 331.5 265 L 329.5 266 L 329.5 265 L 331 264.5 L 330 261.5 Q 330.7 255.3 327.5 253 L 326 252.5 Q 328.5 251 325 249.5 L 325 247.5 L 318.5 239 L 317 239.5 L 316.5 238 L 315 238.5 L 313.5 235 L 302.5 230 L 300 227.5 L 299 225.5 L 300 223 L 311 216 L 311 214 Q 313.7 215.1 313 212.5 L 319 205.5 L 319 201.5 L 323 195.5 L 323 193.5 L 324 191.5 L 324 189.5 L 325 187.5 L 325 183.5 L 325 173.5 L 324 172.5 L 325 170.5 L 323 161.5 L 321 158.5 L 321.5 157 Q 318.5 157.9 320 153.5 L 319 150 L 315 148.5 L 316 146.5 L 313 147.5 Q 316.8 145.8 313.5 144 L 311.5 143 L 310 143.5 L 311 141 Q 308.3 142.1 309 139.5 L 308 137 L 301.5 132 Q 300 134.5 298.5 131 L 297 130.5 L 297.5 129 L 287.5 124 L 278.5 123 L 275.5 120 Z " /><path fill="rgb(27,63,95)" stroke="rgb(27,63,95)" stroke-width="1" opacity="1" d="M 267.5 122 L 270 122.5 L 265.5 124 L 265.5 123 L 267.5 122 Z " /><path fill="rgb(27,63,95)" stroke="rgb(27,63,95)" stroke-width="1" opacity="1" d="M 144.5 123 L 143 125.5 L 140 130.5 L 140 132.5 L 139 134.5 L 139 138.5 L 140 141.5 L 139 144 Q 142 142.8 141 146.5 L 142.5 149 L 144.5 148 L 144.5 149 L 143 149.5 L 147 151.5 Q 144.8 152.8 147.5 154 L 152.5 155 L 154 154.5 L 153.5 156 L 156.5 155 L 159.5 157 L 192.5 157 L 194.5 155 L 198.5 155 Q 200.8 155.8 200 153.5 L 198 153.5 Q 201.5 152 199 150.5 L 198 148.5 L 199 147.5 L 197.5 145 Q 198.8 147.3 200 144.5 L 198 143.5 Q 200.8 141.8 199 135.5 L 198.5 133 Q 195.5 133.7 197 130 Q 200 128.8 199 132.5 L 201 138.5 L 201 159 L 156.5 159 Q 147 157.4 142 151.5 Q 137.7 146.3 137 137.5 L 140 127.5 L 144.5 123 Z " /><path fill="rgb(27,63,95)" stroke="rgb(27,63,95)" stroke-width="1" opacity="1" d="M 81.5 154 L 85 154.5 L 81.5 156 L 75 160.5 L 75 162.5 L 74.5 164 L 74 162.5 L 74.5 161 L 71 162.5 L 72 164.5 L 69 166.5 L 69.5 168 Q 67.3 167.3 68 169.5 L 67 172.5 L 68 175.5 L 67.5 177 L 70 178.5 L 68.5 178 L 67 178.5 L 68.5 182 L 70 181.5 L 70 183.5 L 71 187 Q 75.7 186.3 77 190.5 L 76 193 L 79.5 192 L 80 194 L 82.5 193 L 85.5 195 L 87.5 195 L 91.5 193 L 94.5 194 L 100 190.5 L 101 188.5 L 100.5 187 L 102.5 188 Q 100.9 186.3 104 184.5 L 104 183 L 106 182.5 L 106 176.5 L 106.5 172 L 108 171.5 L 106 170.5 L 106 168.5 Q 106.7 165.9 104 167 L 104 165 L 102 165 L 102 161.5 L 101 159 Q 98.3 160.1 99 157.5 L 106 163.5 Q 110.4 168.7 109 179.5 Q 106.9 188.4 100.5 193 L 91.5 197 L 83.5 197 Q 74.6 194.9 70 188.5 Q 64.3 183.2 66 170.5 Q 68.4 161.4 75.5 157 L 79 156.5 L 78.5 155 L 81.5 154 Z M 73 188 L 74 190 Q 75 187 73 188 Z " /><path fill="rgb(27,63,95)" stroke="rgb(27,63,95)" stroke-width="1" opacity="1" d="M 90.5 154 L 96 155 L 95.5 157 L 93 155.5 L 92.5 157 L 92 155 L 90.5 154 Z " /><path fill="rgb(27,63,95)" stroke="rgb(27,63,95)" stroke-width="1" opacity="1" d="M 97.5 156 L 98 158.5 L 97 158.5 L 97.5 156 Z " /><path fill="rgb(27,63,95)" stroke="rgb(27,63,95)" stroke-width="1" opacity="1" d="M 286.5 168 Q 289.5 169.5 286.5 171 L 286.5 168 Z " /><path fill="rgb(27,63,95)" stroke="rgb(27,63,95)" stroke-width="1" opacity="1" d="M 287.5 184 L 286.5 186 L 285 185.5 L 287.5 184 Z " /><path fill="rgb(27,63,95)" stroke="rgb(27,63,95)" stroke-width="1" opacity="1" d="M 75.5 186 L 76.5 188 L 75.5 186 Z " /><path fill="rgb(27,63,95)" stroke="rgb(27,63,95)" stroke-width="1" opacity="1" d="M 282.5 199 Q 287.5 201.5 282.5 204 Q 279.2 205.1 280 202.5 L 282.5 199 Z " /><path fill="rgb(27,63,95)" stroke="rgb(27,63,95)" stroke-width="1" opacity="1" d="M 153.5 201 L 158.5 202 Q 160 199.5 165.5 201 Q 173.6 203.9 178 210.5 L 179 212.5 L 178.5 214 Q 181.1 213.2 180 216.5 L 181 217.5 L 181 248.5 L 180 248.5 L 179 242.5 L 180 239.5 L 179 236.5 L 180 233.5 L 179 230.5 L 180 228.5 L 180 226.5 L 178.5 223 L 177 223.5 Q 180.5 222 179 215.5 L 175 210.5 L 175.5 209 L 171 208 L 170.5 206 L 169 206.5 L 168.5 204 L 167 204.5 Q 167.9 201.1 162.5 203 L 159.5 202 L 157.5 203 L 155.5 202 L 155.5 204 L 153.5 203 L 146.5 208 L 145.5 206 L 142 212.5 L 142.5 214 L 141 214.5 L 142 215.5 L 139 218.5 L 139 220.5 L 138 225.5 L 139 227.5 L 139 229.5 L 138 232.5 L 139 235.5 L 139 237.5 L 141 241.5 L 139 241.5 L 139.5 244 L 141 243.5 L 140.5 246 L 139 245.5 L 138 255.5 L 139 257.5 L 139 259.5 L 138 262.5 L 139 265.5 L 139 267.5 L 138 272.5 L 139 275.5 L 139 277.5 L 138 280.5 L 139 283.5 L 138 286.5 L 140 289.5 L 139 291.5 L 139 293.5 L 140 298.5 L 139 301.5 L 139 305.5 L 138 307.5 L 139 309.5 L 139 311.5 L 138 314.5 L 139 323.5 L 140 325.5 L 139 327.5 L 141 333 L 145 335.5 L 145.5 337 L 147.5 337 L 149 337.5 L 147 338.5 L 151.5 340 L 153.5 339 L 153.5 340 L 152 340.5 Q 153.3 343.3 154.5 341 L 157.5 343 L 255.5 343 L 257.5 343 L 261.5 342 Q 262.8 344.3 264 341.5 L 263 339.5 L 265 340.5 L 265.5 342 L 268 341 L 268.5 339 L 269 340.5 L 268.5 342 Q 270.8 342.8 270 340.5 L 271 340.5 L 271.5 342 L 272.5 340 L 275.5 341 L 275.5 339 L 277.5 340 L 282.5 337 L 284.5 338 L 286.5 337 Q 288 339.5 289.5 336 L 295 335 L 295.5 333 L 297 333.5 L 296 331.5 L 298.5 331 L 300.5 330 L 304 330.5 L 303 328.5 L 305 328.5 L 305.5 327 Q 307 329.5 308.5 326 L 311.5 324 L 315 322 Q 313.9 319.3 316.5 320 L 317.5 317 Q 318.8 319.3 320 316.5 L 317 315.5 L 321 313.5 L 319 312.5 L 320.5 312 L 322 312.5 L 325 305.5 L 329 301.5 L 328.5 300 L 330 299.5 L 328 298.5 L 331 293.5 Q 328.5 292 332 290.5 L 333 287.5 L 333.5 271 L 334 287.5 Q 329.9 310.4 315.5 323 Q 298.3 339.8 267.5 343 L 266 342.5 L 265.5 344 L 257.5 344 L 255.5 344 L 153.5 344 Q 144.4 341.5 140 334.5 L 137 324.5 L 137 221.5 L 140 211.5 L 145.5 205 L 153.5 201 Z " /><path fill="rgb(27,63,95)" stroke="rgb(27,63,95)" stroke-width="1" opacity="1" d="M 317.5 204 L 316.5 206 L 317.5 204 Z " /><path fill="rgb(27,63,95)" stroke="rgb(27,63,95)" stroke-width="1" opacity="1" d="M 254.5 206 L 258 206.5 L 254.5 207 L 254.5 206 Z " /><path fill="rgb(27,63,95)" stroke="rgb(27,63,95)" stroke-width="1" opacity="1" d="M 268.5 206 L 267.5 208 L 268.5 206 Z " /><path fill="rgb(27,63,95)" stroke="rgb(27,63,95)" stroke-width="1" opacity="1" d="M 272.5 206 L 275 207.5 L 273.5 207 L 272.5 206 Z " /><path fill="rgb(27,63,95)" stroke="rgb(27,63,95)" stroke-width="1" opacity="1" d="M 273.5 243 L 274.5 245 L 273.5 243 Z " /><path fill="rgb(27,63,95)" stroke="rgb(27,63,95)" stroke-width="1" opacity="1" d="M 177.5 244 L 177.5 247 Q 174.5 245.5 177.5 244 Z " /><path fill="rgb(27,63,95)" stroke="rgb(27,63,95)" stroke-width="1" opacity="1" d="M 272.5 245 L 272 246.5 L 271.5 248 L 268.5 247 L 267 247.5 L 270 249.5 L 267 250 L 266.5 248 L 261 249 Q 259.7 245.7 264.5 247 Q 266 249.5 267.5 246 L 269.5 247 L 272.5 245 Z " /><path fill="rgb(27,63,95)" stroke="rgb(27,63,95)" stroke-width="1" opacity="1" d="M 245.5 246 L 250 247.5 L 244.5 248 L 245.5 246 Z " /><path fill="rgb(27,63,95)" stroke="rgb(27,63,95)" stroke-width="1" opacity="1" d="M 251.5 247 L 260 247.5 L 251.5 248 L 251.5 247 Z " /><path fill="rgb(27,63,95)" stroke="rgb(27,63,95)" stroke-width="1" opacity="1" d="M 271.5 249 L 273.5 250 L 275 249.5 L 275.5 251 L 278 250 L 278.5 252 L 282 251.5 L 281 253.5 L 282.5 253 L 284 253.5 L 282 254.5 L 287 258.5 L 289 261.5 L 290.5 265 L 292 264.5 L 292 266.5 L 293 268.5 L 293 270.5 L 292 274.5 L 292 278.5 L 290 287.5 L 285 295 L 283 295.5 L 283.5 297 L 280.5 297 L 276.5 301 L 274.5 301 L 268.5 303 L 266.5 303 L 255.5 305 L 201.5 305 L 199.5 304 L 197.5 305 L 195.5 305 L 193.5 304 L 191.5 305 L 189.5 305 L 187.5 304 L 182.5 305 L 179 303.5 L 259.5 303 L 272.5 300 Q 280.9 296.9 286 290.5 Q 291.3 284.3 291 272.5 L 288 262.5 L 280.5 254 Q 279 256.5 277.5 253 L 271 251 L 271.5 249 Z " /><path fill="rgb(27,63,95)" stroke="rgb(27,63,95)" stroke-width="1" opacity="1" d="M 180.5 250 L 181 302 Q 178.3 303.1 179 300.5 L 179 296.5 L 178 294.5 L 180 291.5 L 179 289.5 L 179 287.5 L 180 283.5 L 179 278.5 L 179 276.5 L 180 271.5 L 179 268.5 L 179 266.5 L 180 263.5 L 179 260.5 L 180 257.5 L 179 254.5 L 180.5 250 Z " /><path fill="rgb(27,63,95)" stroke="rgb(27,63,95)" stroke-width="1" opacity="1" d="M 141.5 253 Q 144.5 254.5 141.5 256 L 141.5 253 Z " /><path fill="rgb(27,63,95)" stroke="rgb(27,63,95)" stroke-width="1" opacity="1" d="M 329.5 288 L 330.5 290 L 329.5 288 Z " /><path fill="rgb(27,63,95)" stroke="rgb(27,63,95)" stroke-width="1" opacity="1" d="M 279.5 300 L 278.5 302 L 279.5 300 Z " /><path fill="rgb(27,63,95)" stroke="rgb(27,63,95)" stroke-width="1" opacity="1" d="M 323.5 302 L 324.5 304 L 323.5 302 Z " /><path fill="rgb(27,63,95)" stroke="rgb(27,63,95)" stroke-width="1" opacity="1" d="M 265.5 338 L 266.5 340 L 265.5 338 Z " /></svg>