<svg width="400" height="400" version="1.1" xmlns="http://www.w3.org/2000/svg" desc="Created with imagetracer.js version 1.2.6" ><path fill="rgb(0,0,0)" stroke="rgb(0,0,0)" stroke-width="1" opacity="1" d="M 0 0 L 400 0 L 400 400 L 0 400 L 0 0 Z M 153 98 L 148 101 L 84 197 L 85 207 L 119 255 L 186 156 L 217 202 L 286 99 L 153 98 Z M 282 144 L 217 240 L 187 197 L 184 195 L 115 300 L 114 302 L 247 302 L 253 299 L 316 205 Q 318 197 315 194 L 282 144 Z " /><path fill="rgb(255,255,255)" stroke="rgb(255,255,255)" stroke-width="1" opacity="1" d="M 152.5 98 L 286 98.5 L 216.5 202 L 185.5 156 L 118.5 255 L 85 206.5 L 84 196.5 L 147.5 101 L 152.5 98 Z " /><path fill="rgb(255,255,255)" stroke="rgb(255,255,255)" stroke-width="1" opacity="1" d="M 281.5 144 L 315 193.5 Q 317.5 197 316 204.5 L 253 299 L 246.5 302 L 113.5 302 L 115 299.5 L 184 195 L 187 196.5 L 216.5 240 L 281.5 144 Z " /></svg>