<svg version="1.1" id="Layer_1" xmlns="http://www.w3.org/2000/svg" xmlns:xlink="http://www.w3.org/1999/xlink" x="0px" y="0px" viewBox="0 0 60.9 60.9" style="enable-background:new 0 0 60.9 60.9;" xml:space="preserve">
 <style type="text/css">
  .st0{fill-rule:evenodd;clip-rule:evenodd;fill:url(#SVGID_1_);}
 </style>
 <g id="Logos">
  <linearGradient id="SVGID_1_" gradientUnits="userSpaceOnUse" x1="30.47" y1="2" x2="30.47" y2="62.94" gradientTransform="matrix(1 0 0 -1 0 62.94)">
   <stop offset="0" style="stop-color:#0052CC">
   </stop>
   <stop offset="1" style="stop-color:#2684FF">
   </stop>
  </linearGradient>
  <path class="st0" d="M53.7,0H7.2C3.2,0,0,3.2,0,7.2v46.4c0,4,3.2,7.2,7.2,7.2h46.4c4,0,7.2-3.2,7.2-7.2V7.3C60.9,3.2,57.7,0,53.7,0
		z M26.2,43.9c0,1.3-1.1,2.4-2.4,2.4H13.7c-1.3,0-2.4-1.1-2.4-2.4V13.7c0-1.3,1.1-2.4,2.4-2.4h10.2c1.3,0,2.4,1.1,2.4,2.4V43.9z
		 M49.7,30c0,1.3-1,2.4-2.4,2.5c0,0,0,0-0.1,0H37.1c-1.3,0-2.4-1.1-2.4-2.4V13.7c0-1.3,1.1-2.4,2.4-2.4h10.2c1.3,0,2.4,1.1,2.4,2.4
		V30z">
  </path>
 </g>
</svg>