<svg width="1024" height="1024" version="1.1" xmlns="http://www.w3.org/2000/svg" desc="Created with imagetracer.js version 1.2.6" ><path fill="rgb(174,236,168)" stroke="rgb(174,236,168)" stroke-width="1" opacity="1" d="M 415.5 128 L 512 223.5 L 417 320.5 L 512 416.5 L 417 512.5 L 511.5 608 L 415.5 513 L 319.5 608 L 223.5 513 L 129 608.5 L 224 704.5 L 129 800.5 L 224.5 895 L 416 704.5 L 223.5 896 L 128 799.5 L 223 703.5 L 128 607.5 L 223 511.5 L 128 415.5 L 415.5 128 Z M 416 129 L 129 416 L 224 511 L 320 416 L 416 511 L 511 417 L 416 321 L 511 224 L 416 129 Z M 320 417 L 225 513 L 321 607 L 415 512 L 320 417 Z " /><path fill="rgb(255,255,255)" stroke="rgb(255,255,255)" stroke-width="1" opacity="1" d="M 0 0 L 1024 0 L 1024 1024 L 0 1024 L 0 0 Z M 416 128 L 128 416 L 223 512 L 128 608 L 223 704 L 128 800 L 224 896 L 416 705 L 512 800 L 608 705 L 704 800 L 896 609 L 801 513 L 896 417 L 801 321 L 896 225 L 801 128 L 705 223 L 609 128 L 513 223 L 416 128 Z " /><path fill="rgb(255,255,255)" stroke="rgb(255,255,255)" stroke-width="1" opacity="1" d="M 511.5 225 L 607 319.5 L 512.5 415 L 417 320.5 L 511.5 225 Z " /><path fill="rgb(255,255,255)" stroke="rgb(255,255,255)" stroke-width="1" opacity="1" d="M 319.5 417 L 415 511.5 L 320.5 607 L 225 512.5 L 319.5 417 Z " /><path fill="rgb(255,255,255)" stroke="rgb(255,255,255)" stroke-width="1" opacity="1" d="M 511.5 417 L 607 511.5 L 512.5 607 L 417 512.5 L 511.5 417 Z " /><path fill="rgb(255,255,255)" stroke="rgb(255,255,255)" stroke-width="1" opacity="1" d="M 703.5 417 L 799 511.5 L 704.5 607 L 609 512.5 L 703.5 417 Z " /><path fill="rgb(9,120,76)" stroke="rgb(9,120,76)" stroke-width="1" opacity="1" d="M 415.5 129 L 511 223.5 L 416 320.5 L 511 416.5 L 415.5 511 L 319.5 416 L 223.5 511 L 129 415.5 L 415.5 129 Z " /><path fill="rgb(255,207,183)" stroke="rgb(255,207,183)" stroke-width="1" opacity="1" d="M 607.5 128 L 704.5 223 L 800.5 128 L 896 224.5 L 801 320.5 L 896 416.5 L 801 512.5 L 896 608.5 L 703.5 800 L 607.5 705 L 511.5 800 L 416.5 704 L 512.5 799 L 608.5 704 L 704.5 799 L 895 607.5 L 799.5 513 L 703.5 608 L 607.5 513 L 512 607.5 L 607 511.5 L 512 415.5 L 607 319.5 L 512 223.5 L 607.5 128 Z M 608 129 L 513 224 L 608 320 L 513 416 L 608 511 L 704 416 L 800 511 L 895 417 L 800 321 L 895 225 L 801 129 L 705 224 L 608 129 Z M 704 417 L 609 513 L 705 607 L 799 512 L 704 417 Z " /><path fill="rgb(255,132,189)" stroke="rgb(255,132,189)" stroke-width="1" opacity="1" d="M 607.5 129 L 704.5 224 L 800.5 129 L 895 224.5 L 800 320.5 L 895 416.5 L 799.5 511 L 703.5 416 L 607.5 511 L 513 415.5 L 608 319.5 L 513 223.5 L 607.5 129 Z " /><path fill="rgb(173,204,40)" stroke="rgb(173,204,40)" stroke-width="1" opacity="1" d="M 511.5 608 L 416.5 704 L 511.5 608 Z " /><path fill="rgb(254,191,0)" stroke="rgb(254,191,0)" stroke-width="1" opacity="1" d="M 607.5 513 L 704.5 608 L 800.5 513 L 895 608.5 L 703.5 799 L 607.5 704 L 511.5 799 L 417 703.5 L 607.5 513 Z " /><path fill="rgb(92,216,82)" stroke="rgb(92,216,82)" stroke-width="1" opacity="1" d="M 223.5 513 L 320.5 608 L 416.5 513 L 511 608.5 L 223.5 895 L 129 799.5 L 224 703.5 L 129 607.5 L 223.5 513 Z " /></svg>